<?xml version="1.0" encoding="UTF-8"?>
<!DOCTYPE svg PUBLIC "-//W3C//DTD SVG 1.1//EN" "http://www.w3.org/Graphics/SVG/1.1/DTD/svg11.dtd">
<!-- Creator: CorelDRAW -->
<svg xmlns="http://www.w3.org/2000/svg" xml:space="preserve" width="72.475mm" height="111.712mm" version="1.1" style="shape-rendering:geometricPrecision; text-rendering:geometricPrecision; image-rendering:optimizeQuality; fill-rule:evenodd; clip-rule:evenodd"
viewBox="0 0 7263.09 11195.24"
 xmlns:xlink="http://www.w3.org/1999/xlink"
 xmlns:xodm="http://www.corel.com/coreldraw/odm/2003">
 <defs>
  <style type="text/css">
   <![CDATA[
    .fil1 {fill:#2B2A29}
    .fil0 {fill:#2B2A29;fill-rule:nonzero}
   ]]>
  </style>
 </defs>
 <g id="Warstwa_x0020_1">
  <metadata id="CorelCorpID_0Corel-Layer"/>
  <path class="fil0" d="M7263.09 10764.66c0,118.71 -48.25,226.28 -126.12,304.19l-0.29 0.28c-77.93,77.88 -185.5,126.1 -304.24,126.1l-6401.78 0c-118.71,0 -226.32,-48.22 -304.24,-126.1l-0.29 -0.28c-77.87,-77.92 -126.12,-185.48 -126.12,-304.19l0 -10334.09c0,-118.58 48.25,-226.26 126.27,-304.32 77.78,-78.07 185.47,-126.25 304.38,-126.25l6401.78 0c118.92,0 226.61,48.18 304.53,126.12 77.87,78.2 126.12,185.87 126.12,304.45l0 10334.09zm-226.41 204.2c52.11,-52.22 84.4,-124.45 84.4,-204.2l0 -10334.09c0,-79.84 -32.2,-152.02 -84.26,-204.04 -52.5,-52.23 -124.7,-84.54 -204.39,-84.54l-6401.78 0c-79.69,0 -151.89,32.31 -204.11,84.54 -52.34,52.02 -84.54,124.2 -84.54,204.04l0 10334.09c0,79.75 32.29,151.98 84.4,204.2 52.22,52.11 124.44,84.38 204.25,84.38l6401.78 0c79.78,0 152.03,-32.27 204.25,-84.38z"/>
  <path class="fil0" d="M5113.93 677.88c64.16,-0.04 119.28,22.92 165.33,68.75 23.02,22.9 40.34,48.25 51.85,75.89 11.53,27.72 17.32,57.74 17.32,90.03 0,32.17 -5.75,62.13 -17.27,89.88 -11.44,27.7 -28.68,53.04 -51.55,76 -22.88,22.96 -48.22,40.31 -75.84,51.81 -27.67,11.53 -57.65,17.33 -89.84,17.33 -64.71,0 -120.18,-22.96 -166.24,-68.79 -22.99,-22.84 -40.34,-48.23 -51.87,-75.99 -11.56,-27.72 -17.35,-57.87 -17.35,-90.24 0,-64.5 23.1,-119.77 69.22,-165.64 22.93,-22.85 48.36,-40.07 76.09,-51.58 27.68,-11.5 57.8,-17.33 90.14,-17.46zm-0.61 409.42c24,-0.02 46.27,-4.28 66.63,-12.78 15.36,-6.38 29.86,-15.27 43.38,-26.58l-60.21 0 -3.37 -6.16c-14.64,-26.69 -26.87,-47.7 -36.51,-62.86 -8.89,-14.06 -15.13,-22.47 -18.5,-25.02 -3.46,-2.6 -7.37,-4.57 -11.62,-5.83 -4.55,-1.36 -9.78,-2.08 -15.56,-2.08l-11.25 0 0 101.97 -62.39 0 0 -263.39 94.93 0c12.49,0 23.85,0.46 34.01,1.4 10.29,0.95 19.13,2.42 26.35,4.31 8.06,2.1 15.39,5.48 21.93,10.02 6.5,4.49 12.29,10.19 17.18,16.94 4.8,6.61 8.52,13.7 10.96,21.02 2.47,7.4 3.74,15.06 3.74,22.9 0,9.54 -1.81,18.83 -5.35,27.76 -3.46,8.69 -8.63,16.98 -15.42,24.66 -7.08,8 -15.68,14.3 -25.7,18.69l-5.06 2.05 4.49 4.6c9.84,10.53 20.71,25.36 32.48,44.27l34.72 55.93 3.08 -3.02c17.15,-17.21 30.09,-36.08 38.58,-56.5 8.58,-20.6 13.01,-43.02 13.07,-67.03 -0.06,-24.06 -4.35,-46.36 -12.84,-66.72 -8.49,-20.36 -21.32,-39.15 -38.43,-56.16 -17.12,-17 -36,-29.83 -56.48,-38.32 -20.53,-8.51 -42.86,-12.89 -66.83,-12.94 -24.08,0.05 -46.37,4.28 -66.77,12.75 -20.34,8.37 -39.09,21.17 -56.16,38.23 -17.06,17.06 -29.88,35.84 -38.32,56.19 -8.54,20.5 -12.92,42.91 -13,66.97 0.05,24.11 4.31,46.41 12.75,66.79 8.48,20.48 21.29,39.37 38.29,56.42 17,17.1 35.79,29.98 56.24,38.53 20.54,8.57 42.95,12.94 66.97,13zm-47.01 -198.08l35.48 0c10.16,0 18.62,-0.69 25.2,-2.07 5.75,-1.2 10.15,-2.91 12.98,-5.01 2.65,-1.98 4.69,-4.37 5.92,-7.03 1.32,-2.93 2.04,-6.41 2.04,-10.43 0,-3.94 -0.63,-7.34 -1.87,-10.07 -1.23,-2.66 -3.16,-5.01 -5.66,-6.96 -2.54,-1.95 -7,-3.59 -13.24,-4.8 -7.37,-1.4 -16.83,-2.12 -28.31,-2.12l-32.54 0 0 48.5z"/>
  <path class="fil0" d="M3727.72 636.19c-931.77,0 -1260.94,1447.94 -1567.54,2612.44 -110.6,-112.04 -451.58,-451.81 -452.01,-451.4 -68.62,-67.88 -147.3,-46.01 -195.63,1.32 -48.36,48.59 -55.42,138.44 0,192.98 2.73,2.26 462.07,460.3 621.02,618.75 43.73,42.73 107.06,67.7 170.1,30.63 65.88,-40 74.91,-111.74 76.49,-111.74 544.08,-2437.56 1030.52,-2619.17 1346.13,-2619.17 265.57,0 571.55,196.12 571.55,588.56 396.22,0 644.36,519.71 325.44,840.1 264.4,127.7 382.1,285.01 382.1,483.77 0,199.15 -166.9,402.31 -410,401.73 -241.27,0 -363.97,-154.87 -552.16,-155.29 -85.16,0 -137.09,68.73 -137.09,136.46l0 492.22 -355.05 0 0 -490.19c-0.57,-76.96 -57.39,-137.34 -127.76,-137.34 -1.26,0 -30.5,0.73 -29.75,1.58l-475.48 59.13c-57.53,8.17 -110.33,70.28 -110.33,135.01 0,75.5 61.56,137.76 146,136.89 10.5,0 24.88,0 23.59,-1.28 -0.72,0 301.08,-38.54 301.08,-38.54 0,0 0,483.89 0,485.76 0,61.82 69.66,121.64 132.26,121.82l631.68 0c73.65,0 137.25,-63.3 137.25,-137.94l0 -443.46c132.2,80.79 315.9,112 410.44,112 354.18,0 692.55,-278.55 690.94,-686.65 -1.41,-370.7 -284.54,-555.35 -284.54,-555.35 166.32,-442.91 -102.42,-870.29 -451.17,-989.21 -125.84,-456.85 -516.03,-633.58 -817.57,-633.58z"/>
  <path class="fil0" d="M4252.41 4781.98c0,231.67 201.21,466.63 586.07,466.63 194.26,0 303.58,-44.29 385.01,-87.58l22.12 -11.94 -35.93 -39.42 2.01 2.05c-8.35,-12.25 -15.39,-14.25 -28.2,-14.25l-18.84 6.32c-29.23,13.64 -118.27,54.92 -279.99,54.92 -198.98,0 -413.46,-129.84 -413.46,-415.68 0,-271.93 232.49,-368.33 430.87,-368.33 143.02,0 219,51.08 232.78,156.47l2.04 17.4 17.83 0c16.81,0 62.14,0 62.14,-33.77l0 -158.76c0,-38.68 -44.77,-44.56 -63.75,-47.17l-18.53 -2.46c-45.75,-6.3 -89.62,-11.79 -205.71,-11.79 -391.93,0.17 -676.46,204.92 -676.46,487.36zm-922.6 -269.81c0,114.64 128.02,183.53 338.34,283.6 167.04,78.26 263.15,160.92 263.15,227.09 0,107.53 -115.83,145.65 -224.14,145.65 -167.76,0 -266.87,-66.72 -321.57,-216.58l-4.57 -12.92 -13.53 0c-29.8,0 -53.22,1.3 -66.31,17.85 -11.53,14.95 -8.34,34.92 -3.19,54.49 -0.41,-0.43 36.85,153.85 36.85,153.85 9.78,37.67 23.3,43.7 83.15,55.39 26.18,4.6 161.69,28.17 276.5,28.17 320.39,0 463.67,-130.16 463.67,-259.14 0,-93.9 -93.1,-183.89 -293.92,-283.88l-91.49 -43.97c-137.37,-65.43 -220.12,-104.56 -220.12,-173.41 0,-66.74 85.76,-113.46 209.02,-113.46 160.13,0 203.15,89.58 222.71,167.64l3.6 14.82 15.39 0c35.53,0 58.11,-2.89 71.2,-17.52 7.94,-8.1 10.64,-19.31 9.24,-32.65l-12.84 -133.3c-3.42,-42.59 -36.11,-48.9 -81.27,-57.82 -53.8,-9.75 -118.24,-21.27 -215.63,-21.27 -278.09,0 -444.23,81.39 -444.23,217.38zm-528.56 -206.19l-346.56 3.02 -231.35 -4 -35.1 -0.89c-20.57,0 -35.25,14.96 -35.25,36.27 0,9.91 0,40.81 38.15,40.81 139.65,0 144.71,11.7 146.29,65.03l0.98 33.81 2.18 142.61 0 307.46c0,51.04 -1.72,132 -5.06,197.43 -0.84,18.73 -1.98,36.53 -125.44,36.53 -34.35,0 -55.24,6.9 -55.24,41 0,10.07 0,36.37 33.37,36.37l7.91 -0.29c14.56,-0.72 53.81,-2.45 246.74,-2.45 205.44,0 247.02,2.03 260.68,2.45l7.63 0.29c26.9,0 50.35,-3.03 50.35,-36.37 0,-38.11 -31.53,-41 -83.58,-41 -124.03,0 -124.75,-17.8 -125.58,-36.22 -3.05,-60.13 -5.49,-141.24 -5.49,-197.74 0,0 0,-82.11 0,-110.6 27.9,0 103.6,0 103.6,0 159.09,0 177.08,4.18 199.83,126.85 6.16,26.61 27.45,29.9 45.29,29.9 37.4,0 41.57,-20.4 41.57,-29.63l-3.02 -45.58c-2.56,-26.3 -5.32,-59.25 -5.32,-103.83l0 -188.24c0,-28.45 -33.8,-28.45 -52.07,-28.45 -30.06,0 -37.12,19.27 -56.25,108.29 -8.49,33.95 -74.08,53.51 -179.99,53.51 0,0 -66.45,0 -93.64,0 0,-34.66 0,-276.69 0,-276.69 0,-75.36 13.38,-75.78 29.91,-76.51 60.71,-2.6 208.33,-7.93 252.49,-7.93 42,0 80.7,9.64 105.76,26.19 78.52,48.9 118.94,82.12 143.42,101.97 23.74,19.27 37.11,30.5 56.82,30.5 11.07,0 44.74,0 44.74,-28.91 0,-7.03 -2.88,-13.68 -13.81,-37.52 -12.8,-28.34 -34.66,-75.2 -61.88,-146.84 -7.6,-22.6 -33.92,-22.6 -82.54,-22.6l-220.55 2.01z"/>
  <path class="fil1" d="M3024.92 5640.33l63.13 0 51.47 184 6.7 25.28c2.01,-7.36 4,-14.69 5.98,-22.01l50.67 -187.27 69.51 0 52.87 205.31 62.31 -205.48 73.46 0 -104.99 327.14 -68.62 0 -50.01 -191.26 -2.09 -9.05 -53.66 200.49 -70.14 0 -93.71 -305.04 -97.99 304.86 -68.44 0 -50.15 -191.26 -2.1 -9.09 -53.83 200.53 -69.71 0 -93.82 -305.09 -97.82 304.9 -68.7 0 -49.92 -191.26 -2.1 -9.05 -53.69 200.49 -70.11 0 -100.53 -327.15 77.05 0 51.47 184 6.7 25.28c1.98,-7.36 4,-14.69 5.98,-22.01l50.67 -187.27 69.65 0 47.56 185.11 5.12 20.2 62.34 -205.48 73.45 0 -0.06 0.17 63.16 0 51.47 184 6.7 25.31c2.01,-7.37 4.02,-14.72 5.98,-22.04l50.49 -187.27 69.65 0 47.79 185.15 5 19.93 62.4 -205.25 73.48 0 -0.06 0.17zm421.11 327.15l0 -80.55 80.41 0 0 80.55 -80.41 0zm146.9 -265.17l-44.77 0 0 -61.98 44.77 0 0 -21.44c0,-15.47 0.92,-34.31 6.13,-49.28 5.98,-15.88 16.6,-28.37 30.67,-37.77 17.01,-11.37 38.84,-14.32 58.87,-14.32 16.72,0 33.66,2.12 50.06,5.23l10.56 1.98 -11.25 66.25 -10.78 -1.83c-9.44,-1.64 -19.08,-2.77 -28.66,-2.77 -7.14,0 -19.96,0.8 -25.25,6.43 -5.98,6.42 -6.7,21.93 -6.7,30.06l0 17.14 59.58 0 0 61.95 -59.58 0 0 265.19 -73.63 0.19 0 -265.05zm135.71 152.65l73.85 -9.58 1.5 10.7c2.21,15.74 7.54,29.81 19.59,40.13 13.49,10.56 31.16,13.58 47.84,13.58 14.61,0 33.66,-2.08 45.17,-11.63 8.03,-7.04 13.41,-15.16 13.41,-26.05 0,-8.34 -3.28,-14.01 -9.95,-18.44 -10.59,-6.55 -37.15,-13 -49.32,-16.11 -25.46,-6.43 -55.84,-14.36 -79.95,-25.52 -15.5,-7.57 -28.94,-18.12 -38,-32.99 -8.78,-14.35 -13.15,-29.86 -13.15,-46.7 0,-15.23 3.28,-29.76 10.75,-42.8 6.82,-13.19 16.32,-23.87 28.6,-33.08 10.84,-7.34 23.16,-12.49 36.02,-16.61 15.54,-4.31 31.39,-6.3 47.5,-6.3 22.56,0 45.46,2.89 66.54,11.14 17.27,6.74 33.66,16.56 44.72,31.78 10.9,15 16.63,33.96 19.64,52.08l1.84 11.06 -72.53 10.11 -1.55 -10.79c-1.75,-12.08 -6.42,-22.65 -15.56,-30.42 -10.7,-8.56 -25.93,-10.8 -39.21,-10.8 -12.9,0 -32.83,1.22 -43.5,9.48 -6.38,4.95 -10.73,10.57 -10.73,18.84 0,4.3 1.15,8.12 3.83,11.49 3.77,4.8 9.84,8.16 15.42,10.44 12.51,5.11 30.3,9.23 43.47,12.79 24.53,6.68 54.12,14.19 77.36,24.43 15.56,6.88 28.86,16.9 38.55,30.96 10.27,14.91 14.13,32.78 14.13,50.65 0,19.87 -5.93,37.9 -16.72,54.57 -11.69,17.99 -28.6,30.81 -47.99,39.09 -21.72,9.73 -44.97,13.64 -68.65,13.64 -33.48,0 -70.17,-5.72 -97.15,-27.1 -25.32,-20.07 -38.3,-49.58 -43.79,-80.75l-1.98 -11.28zm512.19 -22.35l72.54 10.09 -1.72 10.98c-5.35,34.09 -19.36,65.18 -45.81,87.98 -25.98,22.42 -56.79,32.43 -91,32.43 -41.72,0 -79.29,-13.15 -108,-44.19 -31.34,-33.88 -40.89,-79.94 -40.89,-124.8 0,-31.04 4.66,-62.58 17.15,-91.2 11.39,-26.13 29.46,-46.61 54.32,-60.54 24.2,-13.58 50.1,-19.96 77.83,-19.96 31.99,0 62.46,7.4 87.72,27.73 24.83,19.99 38.46,47.7 44.19,78.71l2.06 11.32 -71.92 9.63 -2.21 -9.75c-3.37,-15 -9.92,-30.23 -21.78,-40.46 -10.5,-9.06 -22.79,-12.75 -36.6,-12.75 -21.98,0 -40.13,7.32 -54.6,24 -18.13,20.9 -21.64,55.39 -21.64,81.86 0,25.78 3.22,61.38 20.94,82.04 13.72,16.61 31.24,24.05 52.67,24.05 16.41,0 31.11,-4.5 43.3,-15.64 13.78,-12.61 19.59,-32.71 21.98,-50.64l1.46 -10.89zm104.35 134.87l0 -80.55 80.55 0 0 80.55 -80.55 0zm106.59 -163.52c0,-49.89 11.57,-100.34 50.84,-134.11 29.34,-25.22 64.42,-36.31 102.94,-36.31 42.78,0 80.84,13.44 110.85,44.31 32.05,32.91 42.81,76.82 42.81,121.68 0,32.21 -3.68,68.79 -18.81,97.77 -12.87,24.6 -31.68,43.43 -55.85,56.97 -24.28,13.63 -51.21,19.97 -79,19.97 -42.89,0 -81.39,-13.13 -111.31,-44.37 -32.51,-33.95 -42.47,-80.27 -42.47,-125.92zm412.74 -142.72c4.87,-6.04 10.16,-11.4 15.74,-15.33 11.83,-8.31 24.97,-12.37 39.38,-12.37 21.52,0 41.14,7.15 59.21,18.55l7.63 4.82 -26.21 67.09 -10.91 -5.93c-10.03,-5.46 -20.68,-8.72 -32.16,-8.72 -8.92,0 -16.61,2.67 -23.53,7.76 -7.63,5.88 -12.55,13.84 -15.39,22.97 -5.75,18.36 -8,37.63 -8,56.81l0 170.39 -73.23 0.14 0 -327.09 67.46 0 0 20.91zm320.19 280.89c-20.74,16.61 -45.37,25.34 -73.74,25.34 -43.24,0 -80.09,-14.96 -106.51,-49.75 -25.75,-33.91 -36.74,-73.24 -36.74,-115.65 0,-29.21 5.24,-57.88 16.58,-85.08 11.04,-24.99 27.13,-46.29 49.97,-61.62 22.99,-15.39 49.09,-21.84 76.58,-21.84 30.53,0 56.54,9.87 78.12,28.34l0 -21.56 68.9 0 0 274.65c0,31.51 -1.72,77.01 -15.61,105.84 -10.88,22.6 -28.43,39.69 -50.33,51.74 -25.16,13.83 -54.12,18.44 -82.54,18.44 -33.17,0 -67.37,-6.22 -94.62,-26.27 -27.33,-20.09 -37.43,-50.33 -36.57,-83.47l0.32 -12.21 72 9.84 1.12 8.27c1.41,10.56 4.61,20.76 13.01,27.53 12.95,9.6 30,12.47 45.75,12.47 16.22,0 35.21,-2.58 48.58,-12.53 11.62,-8.63 18.62,-20.71 22.42,-34.29 2.42,-9.6 3.14,-24.31 3.31,-38.2zm-658.11 -138.44c0,27.1 4.4,59.49 23.01,80.63 14.93,16.96 33.49,25.45 56.1,25.45 22.76,0 41.15,-8.62 56.11,-25.75 18.78,-21.54 23.01,-54.57 23.01,-82.08 0,-27.08 -4.54,-57.74 -23.16,-78.78 -14.9,-16.86 -33.43,-25.47 -55.96,-25.47 -22.61,0 -41.14,8.31 -56.13,25.22 -18.75,21.21 -22.98,53.53 -22.98,80.76zm515.79 -5.32c0,26.34 3.74,59.87 21.55,80.74 13.64,15.99 30.85,23.63 51.79,23.63 21.12,0 38.12,-7.6 52.1,-23.49 17.95,-20.38 21.43,-53.29 21.43,-79.3 0,-26.46 -4.23,-57.01 -22.32,-77.64 -13.93,-15.81 -30.85,-24.61 -52.05,-24.61 -20.82,0 -37.17,8.49 -50.69,24.21 -17.61,20.46 -21.81,50.41 -21.81,76.45z"/>
  <path class="fil0" d="M2247.54 5956.56l-93.82 -305.3 53.98 0 49.2 175.86 17.38 65.7c0.71,-3.03 6.18,-23.84 16.43,-62.37l48.47 -179.18 52.79 0 45.46 176.86 14.79 58.38 17.72 -58.67 53.66 -176.73 50.35 0 -97.93 305.28 -52.27 0 -47.73 -182.77 -11.94 -51.88 -62.9 234.83 -53.63 0zm436.16 0l-93.91 -305.3 53.95 0 49.2 175.86 17.38 65.7c0.72,-3.03 6.21,-23.84 16.43,-62.37l48.3 -179.18 52.82 0 45.63 176.86 14.65 58.38 17.69 -58.67 53.81 -176.73 50.38 0 -98.14 305.28 -52.04 0 -47.93 -182.77 -11.94 -51.88 -63.02 234.83 -53.24 0zm435.92 0l-93.79 -305.3 53.95 0 49.2 175.86 17.41 65.7c0.72,-3.03 6.19,-23.84 16.41,-62.37l48.47 -179.18 52.67 0 45.61 176.86 14.81 58.38 17.7 -58.67 53.66 -176.73 50.35 0 -97.96 305.28 -52.22 0 -47.78 -182.77 -11.95 -51.88 -62.85 234.83 -53.67 0zm337.36 0l0 -58.71 58.55 0 0 58.71 -58.55 0zm146.9 0l0 -265.19 -44.77 0 0 -40.11 44.77 0 0 -32.37c0,-20.56 1.98,-35.53 5.44,-45.42 5.03,-13.4 13.98,-24.17 26.5,-32.54 12.63,-8.47 30.2,-12.49 52.79,-12.49 14.38,0 30.47,1.73 48.04,5.03l-7.63 44.89c-10.93,-1.86 -21,-2.91 -30.5,-2.91 -15.56,0 -26.93,3.17 -33.25,9.92 -6.44,6.9 -9.64,19.27 -9.64,37.51l0 28.06 59.58 0 0 40.11 -59.58 0 0 265.21 -51.76 0 0 0.29zm137.53 -92.23l51.78 -6.72c2.88,20.54 10.5,35.94 23.59,47.15 13.24,10.36 31.37,15.97 54.67,15.97 23.59,0 41.14,-5.03 52.36,-14.35 11.5,-10.07 17.15,-21.31 17.15,-34.27 0,-11.78 -4.89,-20.98 -15.13,-27.73 -7.2,-4.47 -24.45,-10.33 -52.36,-17.42 -37.26,-9.46 -63.16,-17.95 -77.86,-24.74 -14.95,-7.3 -26.15,-16.82 -33.48,-28.87 -7.77,-12.66 -11.53,-26.18 -11.53,-41.01 0,-13.81 3.05,-26.44 9.49,-37.69 6.07,-11.77 14.56,-21.25 25.06,-29.14 8.34,-5.64 18.84,-10.63 32.79,-15.12 13.96,-3.87 28.63,-5.89 44.6,-5.89 23.59,0 44.45,3.3 62.57,10.38 17.98,7.04 31.25,16.22 39.85,28.01 8.52,11.77 14.41,27.77 17.7,47.45l-50.64 7.05c-2.3,-15.96 -8.89,-28.33 -19.56,-37.41 -10.93,-8.73 -26.47,-13.2 -46.03,-13.2 -23.31,0 -40,3.88 -50.21,11.81 -10.21,7.9 -14.96,16.79 -14.96,27.46 0,6.73 1.98,12.92 6.16,18.25 4.2,5.32 10.67,10.06 19.87,13.81 4.89,2 20,6.47 44.74,13.23 36.11,9.79 61.57,17.68 75.81,23.88 14.41,6.45 25.75,15.37 33.98,27.17 8.02,11.79 12.2,26.75 12.2,44.43 0,17.15 -5.01,33.11 -14.96,48.61 -9.93,15.1 -24.45,27.04 -43.3,35.07 -18.98,8.52 -40.28,12.7 -64.16,12.7 -39.26,0 -69.51,-8.2 -90.36,-24.74 -20.71,-16.41 -34.06,-41.43 -39.82,-74.1zm508.82 -19.38l50.64 7.06c-5.46,34.81 -19.7,62.1 -42.15,81.37 -23.01,19.98 -50.92,29.79 -83.86,29.79 -41.58,0 -74.95,-13.81 -99.97,-40.7 -25.2,-27.47 -37.98,-66.59 -37.98,-117.37 0,-33.06 5.58,-62.11 16.22,-86.84 10.79,-24.44 27.34,-43.01 49.66,-55.38 22.3,-12.66 46.32,-18.56 72.48,-18.56 32.97,0 59.73,8.2 80.87,25.33 21.01,16.83 34.52,40.99 40.28,72.17l-50.64 6.79c-4.57,-20.29 -13.23,-36 -25.31,-46.32 -11.91,-10.36 -26.47,-15.39 -43.73,-15.39 -25.89,0 -46.75,9.21 -62.85,27.76 -16.25,18.81 -24.31,48.58 -24.31,89.02 0,40.68 7.77,70.74 23.45,89 15.53,18.83 35.96,28.03 61.1,28.03 20.17,0 37,-6.18 50.67,-18.52 13.23,-12.26 22.01,-31.38 25.45,-57.26zm105.91 111.61l0 -58.71 58.69 0 0 58.71 -58.69 0zm106.59 -152.6c0,-56.79 15.54,-98.64 47.04,-125.82 26.19,-22.44 58.11,-33.65 95.81,-33.65 42.03,0 76.27,13.8 103.02,40.99 26.45,27.47 39.71,65.42 39.71,114.05 0,39.26 -5.78,70.13 -17.58,92.72 -11.8,22.58 -29.05,39.84 -51.5,52.5 -22.15,12.37 -47.03,18.55 -73.65,18.55 -42.72,0 -77.11,-13.81 -103.43,-40.99 -26.18,-27.62 -39.41,-66.87 -39.41,-118.35zm52.94 -0.26c0,38.94 8.63,68.58 25.75,87.85 16.98,19.39 38.58,29.18 64.3,29.18 25.79,0 47.33,-9.79 64.34,-29.49 17.12,-19.39 25.72,-49.17 25.72,-89.27 0,-37.98 -8.6,-66.6 -25.9,-86.01 -17.09,-19.43 -38.69,-29.18 -64.16,-29.18 -25.89,0 -47.32,9.75 -64.3,28.91 -17.29,19.54 -25.75,49.03 -25.75,88.02zm292.33 152.86l0 -305.3 45.6 0 0 46.88c12.09,-21.88 23.02,-36.24 32.95,-43.27 10.21,-7.09 21.18,-10.38 33.11,-10.38 17.55,0 35.1,5.31 53.36,16.86l-18.41 47.11c-12.37,-6.72 -24.74,-10.04 -37.4,-10.04 -11.07,0 -21.04,3.32 -30.23,10.04 -8.78,6.79 -15.25,16.29 -19.13,28.35 -5.61,18.26 -8.49,38.25 -8.49,60.09l0 159.48 -51.36 0 0 0.18zm181.14 24.98l51.67 7.06c2.12,15.97 7.77,27.19 17.27,34.81 12.77,9.5 30.35,14.67 52.33,14.67 23.62,0 42.14,-5.03 55.12,-14.67 12.95,-9.63 21.73,-23.27 26.47,-40.4 2.71,-10.67 3.74,-32.93 3.6,-66.88 -22.59,27.05 -50.92,40.43 -84.61,40.43 -42.26,0 -74.77,-15.12 -97.79,-45.44 -23.05,-30.36 -34.52,-66.61 -34.52,-109.03 0,-28.89 5.32,-55.9 15.65,-80.67 10.78,-24.46 25.92,-43.56 46.06,-56.94 19.99,-13.52 43.55,-19.98 70.48,-19.98 36.11,0 65.74,14.94 89.05,44.74l0 -37.96 47.04 0 0 263.72c0,47.43 -4.75,81.1 -14.53,101.1 -9.35,19.71 -24.89,35.36 -45.75,46.9 -21.03,11.49 -46.75,17.09 -77.28,17.09 -36.25,0 -65.74,-7.92 -88.15,-24.15 -22.19,-16.56 -32.97,-41.28 -32.11,-74.37zm42.32 -183.16c0,40.1 8.35,69.3 24.16,87.85 15.8,18.53 36.11,27.45 60.11,27.45 24.05,0 44.01,-8.92 60.3,-27.18 16.11,-18.57 24.16,-47.15 24.16,-86.54 0,-37.41 -8.2,-65.71 -25.05,-84.85 -16.52,-18.84 -36.66,-28.34 -60.25,-28.34 -23.16,0 -42.72,9.2 -58.98,28.03 -16.25,18.98 -24.45,46.74 -24.45,83.58z"/>
  <path class="fil0" d="M1208.94 10050.13l-297.72 0 0 147.39 271.7 0 0 100.16 -271.7 0 0 261.71 -108.08 0 0 -609.4 421.6 0 0 100.15 -15.79 0zm2428.36 314.14c-8.75,33.89 -20.94,63.65 -36.37,89.12 -15.67,25.85 -34.77,47.39 -57.27,64.52 -22.33,16.97 -46.98,29.77 -73.86,38.31 -26.67,8.49 -55.58,12.8 -86.6,12.92 -49.46,0.08 -92.44,-7.77 -128.86,-23.36 -37.03,-15.87 -67.24,-39.86 -90.54,-71.78 -22.61,-31.01 -39.62,-65.22 -50.95,-102.5 -11.28,-37.09 -16.98,-77.42 -17.12,-120.75 -0.09,-47.75 6.61,-90.59 19.87,-128.47 13.44,-38.25 33.75,-71.28 60.65,-98.9 26.96,-27.63 57.85,-48.42 92.56,-62.29 34.54,-13.76 72.99,-20.73 115.08,-20.86 29.6,-0.07 57.22,3.75 82.8,11.33 25.7,7.64 49.32,19.16 70.69,34.49 21.49,15.34 39.82,34.41 54.89,57.01 14.9,22.28 26.65,48.07 35.08,77.18l4.6 15.93 -105.27 24.9 -4.4 -14.05c-5.9,-18.79 -13.3,-35.18 -22.1,-49.03 -8.66,-13.58 -18.76,-24.91 -30.21,-33.91 -11.36,-8.95 -24.19,-15.66 -38.37,-20.11 -14.5,-4.54 -30.7,-6.84 -48.45,-6.84 -58.05,0 -101.79,18.63 -131.19,55.83 -15.04,19.06 -26.38,41.5 -33.91,67.25 -7.66,26.18 -11.54,56.14 -11.54,89.76 0,76.49 15.79,132.92 47.3,168.96 15.5,17.78 33.49,31.16 53.72,39.98 20.28,8.88 43.27,13.33 68.9,13.33 21.01,0 39.88,-2.82 56.42,-8.28 16.38,-5.49 30.85,-13.7 43.33,-24.52 12.57,-10.92 23.41,-24.77 32.39,-41.46 9.21,-17.05 16.61,-37.33 22.07,-60.55l3.69 -15.65 106.93 27.18 -3.94 15.31zm-1020.07 -410c21.35,0 41.29,3.85 59.67,11.51 18.36,7.61 35.28,19.12 50.58,34.33 15.36,15.25 26.9,32.21 34.55,50.61 7.68,18.47 11.53,38.5 11.53,60.05 0,21.44 -3.83,41.49 -11.5,59.93 -7.63,18.42 -19.11,35.36 -34.35,50.63 -15.22,15.31 -32.11,26.88 -50.55,34.56 -18.41,7.66 -38.44,11.53 -59.93,11.53 -21.52,0 -41.63,-3.87 -60.07,-11.51 -18.5,-7.63 -35.45,-19.13 -50.76,-34.35 -15.3,-15.21 -26.87,-32.17 -34.54,-50.61 -7.66,-18.47 -11.54,-38.6 -11.54,-60.18 0,-21.5 3.89,-41.48 11.54,-59.9 7.65,-18.41 19.24,-35.33 34.54,-50.55 15.31,-15.25 32.31,-26.77 50.73,-34.4 18.44,-7.7 38.58,-11.57 60.1,-11.66zm-0.4 272.98c15.96,0 30.81,-2.86 44.42,-8.53 10.24,-4.25 19.88,-10.18 28.89,-17.7l-40.14 0 -2.21 -4.07c-9.81,-17.9 -17.93,-31.92 -24.28,-41.89 -5.96,-9.42 -10.16,-15.06 -12.43,-16.78 -4.58,-3.48 -10.68,-5.27 -18.1,-5.27l-7.49 0 0 68.01 -41.6 0 0 -175.6 63.3 0c17.15,0 30.64,1.28 40.25,3.83 5.35,1.39 10.24,3.64 14.59,6.63 4.29,2.96 8.14,6.76 11.44,11.34 3.23,4.33 5.67,9.08 7.32,13.97 1.63,4.92 2.5,10.07 2.5,15.26 0,6.41 -1.17,12.66 -3.54,18.55 -2.29,5.75 -5.78,11.21 -10.3,16.35 -4.63,5.35 -10.38,9.54 -17.12,12.51l-3.42 1.35 3.05 3.12c6.5,6.98 13.78,16.92 21.64,29.51l23.13 37.31 2.12 -2.09c11.39,-11.43 20,-23.99 25.67,-37.63 5.7,-13.73 8.66,-28.68 8.69,-44.66 -0.03,-16.02 -2.88,-30.91 -8.54,-44.51 -5.64,-13.58 -14.24,-26.12 -25.64,-37.44 -11.39,-11.29 -24,-19.87 -37.66,-25.53 -13.7,-5.69 -28.6,-8.64 -44.54,-8.66 -31.97,0.02 -59.33,11.35 -81.94,33.95 -22.65,22.67 -34.09,50.12 -34.21,82.19 0.03,16.03 2.88,30.91 8.49,44.52 5.67,13.62 14.21,26.23 25.52,37.62 11.3,11.37 23.84,19.97 37.51,25.68 13.67,5.69 28.63,8.66 44.63,8.66zm-31.34 -132.05l23.65 0c12.69,0 21.24,-1.58 25.43,-4.69 1.78,-1.36 3.17,-2.95 4,-4.76 0.86,-1.87 1.32,-4.19 1.32,-6.92 0,-2.6 -0.43,-4.83 -1.26,-6.65 -0.81,-1.75 -2.07,-3.36 -3.74,-4.66 -3.98,-3.08 -13.24,-4.62 -27.71,-4.62l-21.7 0 0 32.31zm-169.3 269.08c-8.78,33.91 -20.94,63.67 -36.4,89.12 -15.65,25.85 -34.78,47.39 -57.28,64.52 -22.33,16.97 -46.98,29.79 -73.82,38.31 -26.62,8.49 -55.56,12.8 -86.66,12.92 -49.41,0.08 -92.47,-7.77 -128.9,-23.39 -36.97,-15.88 -67.17,-39.83 -90.45,-71.75 -22.61,-31.01 -39.62,-65.22 -50.95,-102.5 -11.27,-37.09 -16.98,-77.42 -17.12,-120.75 -0.09,-47.75 6.61,-90.59 19.88,-128.47 13.43,-38.25 33.74,-71.28 60.64,-98.9 26.96,-27.63 57.86,-48.42 92.56,-62.29 34.55,-13.76 72.99,-20.73 115.08,-20.86 29.57,-0.07 57.19,3.75 82.78,11.33 25.69,7.64 49.34,19.16 70.71,34.49 21.5,15.34 39.79,34.39 54.9,57.01 14.87,22.28 26.61,48.07 35.07,77.18l4.61 15.93 -105.34 24.9 -4.37 -14.05c-5.87,-18.79 -13.26,-35.18 -22.07,-49.03 -8.57,-13.54 -18.67,-24.86 -30.2,-33.91 -11.36,-8.93 -24.2,-15.66 -38.41,-20.11 -14.47,-4.54 -30.64,-6.84 -48.41,-6.84 -58.06,0 -101.79,18.63 -131.19,55.83 -15.05,19.06 -26.39,41.5 -33.92,67.25 -7.66,26.18 -11.53,56.14 -11.53,89.76 0,38.79 4.05,72.44 12.2,100.86 7.86,27.63 19.62,50.38 35.1,68.11 15.51,17.78 33.49,31.16 53.72,39.98 20.28,8.88 43.27,13.33 68.91,13.33 21.01,0 39.88,-2.82 56.42,-8.28 16.34,-5.48 30.84,-13.7 43.32,-24.52 12.58,-10.92 23.42,-24.77 32.4,-41.46 9.2,-17.05 16.6,-37.33 22.06,-60.55l3.69 -15.65 106.94 27.18 -3.94 15.31zm-747.42 -227.72c-1.38,-16.4 -5,-30.73 -10.78,-42.71 -5.55,-11.55 -13.27,-21.25 -23.08,-28.95 -10.04,-7.92 -22.5,-13.95 -37.11,-18.01 -15.45,-4.31 -33.4,-6.55 -53.69,-6.67 -36.66,0.08 -66.08,6.69 -88.21,19.88 -9.93,5.95 -17.38,13.15 -22.19,21.47 -4.71,8.17 -7.11,17.95 -7.11,29.25 0,19.24 7.06,33.4 21.07,42.32 8.31,5.29 21.09,10.85 38.17,16.57 17.73,5.92 39.88,11.94 66.32,17.95 23.65,5.15 45.74,10.59 66.02,16.21 20.02,5.48 37.75,11.13 53.11,16.74 16.28,5.93 31.5,13.52 45.43,22.73 14.01,9.23 26.84,20.11 38.43,32.54 12.32,13.21 21.58,28.73 27.65,46.41 5.93,17.29 8.95,36.74 8.95,58.13 0,27.08 -5.46,52.17 -16.4,75.01 -10.82,22.64 -27.05,42.98 -48.51,60.87 -21.32,17.76 -45.94,31.1 -73.62,39.88 -27.45,8.67 -57.97,13.06 -91.41,13.06 -42,0 -79.06,-4.74 -110.94,-14.27 -32.62,-9.71 -59.93,-24.5 -81.77,-44.17 -21.69,-19.57 -38.37,-42.18 -50,-67.69 -11.53,-25.34 -18.04,-53.53 -19.45,-84.45l-0.72 -15.08 103.49 -8.95 1.2 15.87c1.55,20.83 6.3,38.82 14.22,53.69 7.6,14.4 18.41,26.17 32.28,35.2 14.81,9.6 31.22,16.92 49.11,21.78 18.13,4.95 38.06,7.54 59.41,7.63 39.74,-0.09 71.44,-8 95,-23.76 11.02,-7.38 19.25,-15.99 24.65,-25.75 5.35,-9.58 8.12,-20.66 8.2,-32.92 -0.08,-25.2 -11.07,-43.58 -32.99,-55.07 -12.87,-6.73 -30.48,-13.55 -52.65,-20.33 -22.53,-6.9 -49.98,-13.85 -82.14,-20.71 -33.29,-7.15 -62.26,-15.92 -86.69,-26.24 -25.08,-10.62 -45.55,-22.97 -61.25,-36.95 -16.11,-14.32 -28.31,-30.99 -36.4,-49.68 -8.03,-18.57 -12,-39.11 -11.85,-61.4 -0.09,-25.43 5,-48.82 15.07,-70.11 10.01,-21.13 25.08,-40.09 45,-56.69 19.76,-16.47 43.07,-28.79 69.77,-36.97 26.32,-8.02 55.9,-12.04 88.58,-12.04 33.37,0 63.79,4 91.12,11.9 27.65,8.04 52.04,20.19 73.05,36.35 21.41,16.45 37.86,36.6 49.32,60.19 11.27,23.27 17.69,50 19.1,80l0.72 15.25 -104.18 8.39 -1.32 -15.67z"/>
  <path class="fil0" d="M3509.1 7395.12l-104.09 0 0 -409.81 -140.94 409.81 -91.21 0 -140.85 -418.18 0 418.18 -104.15 0 0 -609.53 141.52 0 140.42 420.02c5.07,15.09 9.41,28.3 13.07,39.7 4.72,-14.18 10.01,-29.86 15.79,-46.86l141.66 -412.86 128.78 0 0 609.53zm897.8 0l-133.5 0 -120.63 -170.67c-18.16,-25.72 -31.94,-45.89 -41.63,-60.9 -19.05,28.9 -62.17,89.99 -159.82,225.03l-4.72 6.53 -131.73 0 235.83 -317.16 -209.1 -292.37 129.96 0 126.52 179.36c6.67,9.5 12.46,18.16 17.41,26.06 23.71,-33.63 72.85,-99.41 148.83,-199.2l4.72 -6.21 122.44 0 -214.59 287.98 230.01 321.55zm-653.68 0l-108.46 0 0 -609.53 108.46 0 0 609.53z"/>
  <path class="fil0" d="M536.03 8537.61l-77 0 0 -434.24 166.61 0c25,0 46.78,1.27 64.77,3.75 19.16,2.62 37.37,9.54 54.09,20.56 17.15,11.27 30.09,26.94 38.43,46.55 8.03,18.9 12.32,38.84 12.69,59.25 0,41.3 -13.49,74.76 -40.08,99.67 -26.33,24.75 -68.5,37.41 -125.35,37.61l-94.16 0 0 166.85zm5600.41 771.64c-10.1,0 -22.21,-2.05 -36.08,-6.05l-7.28 -2.08 -7.63 -72.22 16.28 5c8.63,2.65 17.18,3.99 25.31,3.99 14.73,0 24.68,-3.56 29.54,-10.61 6.19,-8.92 13.5,-25.47 21.76,-49.31l-117.55 -310 78.68 0 72.91 202.66c0.95,2.76 1.89,5.66 2.88,8.77 2.59,-8.43 5.35,-16.65 8.35,-24.64l68.1 -186.78 75.55 0 -120.21 319.7c-11.1,34.57 -24.33,63.15 -39.35,84.96 -16.52,24.07 -40.51,36.38 -71.26,36.62zm-184.11 -120.82l-73.05 0 0 -320.46 68.54 0 0 19.1c14.93,-17.21 32.71,-25.87 53.1,-25.87 19.28,0 38.72,5.96 57.86,17.69l7.88 4.84 -25.28 67.76 -11.51 -6.67c-10.78,-6.28 -21.26,-9.44 -31.19,-9.44 -14.93,0 -25.48,6.24 -33.22,19.64 -8.72,15.06 -13.13,37.19 -13.13,65.71l0 167.7zm-164.07 3.98c-24.85,0 -42.86,-4.51 -55.12,-13.81 -12.38,-9.4 -20.03,-21.76 -22.82,-36.68 -2.39,-12.97 -3.54,-30 -3.54,-52.05l0 -160.38 -36.8 0 0 -61.51 36.8 0 0 -69.28 73.02 -44.24 0 113.52 50.58 0 0 61.51 -50.58 0 0 163.17c0,17.31 2.13,24.26 3.4,26.85 0.4,0.84 3.65,3.09 13.66,3.22 6.42,0 13.27,-0.67 20.11,-2.02l11.48 -2.28 10.5 67.14 -10.59 2.13c-15.88,3.17 -29,4.72 -40.11,4.72zm-281.51 3.05c-40.14,0 -72.18,-8.77 -95.25,-26.13 -23.48,-17.65 -38.18,-44.38 -43.67,-79.42l-1.75 -11.17 72.87 -10.95 1.44 11.41c2.24,17.95 8.43,30.79 18.93,39.27 10.58,8.61 26.39,12.95 46.87,12.95 19.44,0 34.23,-3.82 43.95,-11.36 9.09,-7.11 13.35,-15.1 13.35,-25.15 0,-7.9 -2.76,-11.58 -4.83,-13.65 -4.2,-4.2 -9.35,-7.29 -15.79,-9.39 -5.47,-1.75 -19.33,-5.69 -54.26,-14.36 -44.86,-10.69 -74.06,-23.78 -89.25,-40.01 -15.39,-16.47 -23.3,-36.41 -23.5,-59.27 0,-28.45 11.39,-52.07 33.91,-70.35 21.84,-17.7 51.16,-26.67 87.15,-26.67 37.78,0 67.85,7.69 89.36,22.84 22.18,15.63 35.76,39.25 40.34,70.2l1.64 11.25 -71.81 9.75 -1.55 -11.1c-1.81,-13.3 -6.81,-22.78 -15.22,-29.02 -8.86,-6.57 -22.07,-9.99 -39.21,-10.17 -17.18,0 -31.01,2.86 -41.05,8.44 -8.32,4.6 -12.09,10.47 -12.23,18.99 0,9.53 4.14,13.06 8.17,15.24 5.86,3.15 19.96,8.78 53.69,17.52 32.28,8.3 55.78,15.39 71.83,21.79 17.3,6.89 31.14,16.75 41.15,29.29 10.38,13.03 15.64,31.1 15.64,53.65 0,29.95 -12.31,55.45 -36.59,75.73 -23.71,19.82 -55.44,29.85 -94.31,29.85zm-322.8 0c-47.84,0 -85.9,-15.01 -113.06,-44.63 -26.96,-29.37 -40.71,-69.78 -40.89,-120.19 0,-49.56 13.15,-90.42 39.13,-121.58 26.47,-31.75 64.16,-47.85 112,-47.85 23.3,0 46,5.18 67.49,15.42 21.9,10.44 40.77,28.2 56.13,52.79 15.47,24.92 22.93,61.42 22.76,111.59l-0.03 11.2 -222.22 0c3.16,24.31 11.15,43.29 23.84,56.55 14.59,15.26 32.54,22.65 54.84,22.65 16.89,0 30.53,-4.21 41.72,-12.83 11.24,-8.67 20.08,-22.44 26.27,-41.01l2.94 -8.75 73.94 9.25 -3.4 12.49c-9.06,33.42 -26.04,59.58 -50.49,77.71 -24.31,18.03 -54.93,27.18 -90.98,27.18zm-75.23 -207.29l0 0 143.05 0c-3.17,-20.71 -10.73,-35.96 -22.59,-45.42 -14.78,-11.81 -30.53,-17.62 -48.13,-17.8 -20.71,0 -37.28,6.71 -50.52,20.47 -11.13,11.5 -18.3,25.57 -21.81,42.74zm-205.45 200.26l-73.05 0 0 -320.46 68.57 0 0 19.1c14.93,-17.21 32.68,-25.87 53.07,-25.87 19.25,0 38.72,5.96 57.86,17.67l7.91 4.84 -25.31 67.78 -11.54 -6.71c-10.72,-6.24 -21.23,-9.4 -31.13,-9.4 -14.96,0 -25.51,6.24 -33.28,19.64 -8.69,15.02 -13.1,37.15 -13.1,65.71l0 167.7zm-281.16 7.03c-40.37,0 -75.89,-13.52 -105.62,-40.2 -30.09,-27.04 -45.32,-69.72 -45.32,-126.9 0,-55.37 14.68,-97.53 43.64,-125.26 28.77,-27.6 64.85,-41.68 107.17,-41.89l0.06 0c43.12,0 79.43,14.33 107.94,42.58 28.46,28.27 43.01,68.6 43.21,119.75 0,61.84 -15.82,106.51 -47.01,132.77 -30.55,25.79 -65.56,38.95 -104.08,39.15zm-0.06 -270.5l0 0c-22.44,0 -40.34,8.12 -54.72,24.78 -14.59,16.89 -21.99,43.35 -21.99,78.62 0,34.84 7.49,61.08 22.25,78 14.55,16.7 32.39,24.89 54.49,25.06 25.17,0 43.67,-8.91 56.5,-27.25 13.58,-19.3 20.45,-45.48 20.45,-77.79 0,-34.27 -7.57,-60.1 -22.44,-76.78 -14.78,-16.59 -32.62,-24.64 -54.55,-24.64zm-230.94 263.48l-73.05 0 0 -258.95 -44.97 0 0 -61.51 44.97 0 0 -21.07c0,-15.76 1.49,-30.32 4.49,-43.27 3.39,-14.67 12.17,-27.82 26.07,-39.05 14.15,-11.51 34.72,-17.19 62.92,-17.41 15.79,0 32.43,1.77 49.55,5.29l10.64 2.14 -11.36 66.38 -11.22 -2.1c-9.32,-1.73 -18.64,-2.62 -27.7,-2.62 -9.87,0 -17.81,1.93 -23.56,5.72 -1.12,0.75 -6.53,5.5 -6.76,29.2l0 16.78 57.59 0 0 61.51 -57.59 0 0 258.95zm-470.88 7.03c-47.84,0 -85.87,-15.01 -113.09,-44.63 -26.93,-29.37 -40.69,-69.78 -40.89,-120.17 0,-49.54 13.18,-90.42 39.13,-121.6 26.52,-31.75 64.21,-47.85 112.03,-47.85 23.3,0 46,5.18 67.49,15.42 21.92,10.44 40.79,28.2 56.1,52.79 15.53,24.92 22.98,61.42 22.78,111.59l-0.05 11.2 -222.2 0c3.17,24.27 11.16,43.27 23.88,56.55 14.59,15.26 32.51,22.65 54.81,22.65 16.89,0 30.56,-4.21 41.75,-12.83 11.24,-8.67 20.07,-22.44 26.27,-41.01l2.91 -8.75 73.96 9.25 -3.39 12.49c-9.07,33.42 -26.07,59.55 -50.52,77.71 -24.31,18.03 -54.93,27.18 -90.98,27.18zm-75.18 -207.29l0 0 143.02 0c-3.16,-20.71 -10.75,-35.96 -22.61,-45.42 -14.76,-11.81 -30.53,-17.62 -48.16,-17.8 -20.68,0 -37.23,6.71 -50.52,20.47 -10.93,11.35 -18.24,25.69 -21.73,42.74zm-140.02 200.26l-73.05 0 0 -434.25 73.05 0 0 434.25zm-274.15 7.03c-28.4,0 -52.42,-8.82 -71.69,-26.36l0 19.33 -69.68 0 0 -434.25 73.05 0 0 130.94c18.81,-15.87 42.4,-23.91 70.51,-23.91 41.72,0 75.64,15.44 100.82,45.94 24.65,29.81 37.14,69.01 37.14,116.45 0,54.55 -13.98,97.18 -41.52,126.73 -27.73,29.73 -60.93,44.93 -98.62,45.13zm-2.42 -270.5l0 0c-20.51,0 -36.71,8.85 -49.43,26.97 -13.38,19.15 -20.25,44.05 -20.43,73.96 0,37.09 4.46,54.53 8.23,62.58 5.41,11.69 13.7,22.04 24.66,30.85 10.15,8.13 21.44,12.11 34.46,12.11 0.26,0 0.52,0 0.78,0l0.14 0c19.85,0 35.88,-8.37 48.9,-25.57 13.61,-17.96 20.6,-44.24 20.77,-78.15 0,-32.44 -6.41,-58.28 -19.1,-76.69 -11.95,-17.36 -27.97,-25.87 -49,-26.05zm-216.21 263.48l-73.07 0 0 -320.46 73.07 0 0 320.46zm0 -354.46l0 0 -73.07 0 0 -79.79 73.07 0 0 79.79zm-264.94 361.49c-40.17,0 -72.22,-8.77 -95.28,-26.13 -23.48,-17.65 -38.18,-44.38 -43.67,-79.42l-1.72 -11.17 72.85 -10.95 1.43 11.41c2.24,17.95 8.46,30.79 18.93,39.27 10.64,8.61 26.42,12.95 46.9,12.95 19.44,0 34.23,-3.82 43.95,-11.36 9.12,-7.11 13.35,-15.1 13.35,-25.15 0,-6 -1.52,-10.35 -4.83,-13.65 -4.23,-4.2 -9.38,-7.29 -15.79,-9.39 -5.47,-1.75 -19.33,-5.69 -54.27,-14.36 -44.85,-10.69 -74.05,-23.78 -89.24,-40.01 -15.39,-16.47 -23.33,-36.41 -23.53,-59.27 0,-28.45 11.42,-52.07 33.92,-70.35 21.83,-17.7 51.15,-26.67 87.14,-26.67 37.78,0 67.85,7.69 89.36,22.84 22.21,15.63 35.77,39.25 40.34,70.2l1.64 11.25 -71.81 9.75 -1.52 -11.1c-1.84,-13.3 -6.82,-22.78 -15.25,-29.02 -8.83,-6.57 -22.04,-9.99 -39.21,-10.17 -17.15,0 -31.01,2.86 -41.05,8.44 -8.32,4.64 -12.09,10.47 -12.18,18.95 0,9.58 4.09,13.1 8.12,15.28 5.87,3.15 19.96,8.78 53.69,17.52 32.28,8.3 55.81,15.39 71.83,21.79 17.35,6.89 31.19,16.77 41.18,29.29 10.38,13.05 15.67,31.1 15.67,53.65 0,29.95 -12.34,55.41 -36.65,75.73 -23.71,19.82 -55.42,29.85 -94.28,29.85zm-194.72 -7.03l-73.34 0 0 -192.4c0,-34.11 -7.19,-48.82 -13.2,-55.19 -8.72,-9.15 -21.07,-13.6 -37.66,-13.6 -13.18,0 -25.29,3.11 -37.03,9.54 -11.1,6.13 -18.9,14.51 -23.73,25.56 -5.15,11.76 -7.66,29.2 -7.49,51.87l0 174.21 -73.05 0 0 -320.46 67.99 0 0 23.88c7.34,-6.84 15.36,-12.53 24.05,-17.03 17.01,-8.81 37.06,-13.41 59.56,-13.62 17.03,0 34.03,3.06 50.6,9.09 17.35,6.35 31.16,16.1 41.06,29.02 9.61,12.55 15.91,26.23 18.67,40.67 2.6,13.61 3.74,31.21 3.57,53.92l0 194.53zm-475.88 7.03c-40.37,0 -75.9,-13.52 -105.59,-40.21 -30.09,-27.03 -45.35,-69.71 -45.35,-126.89 0,-55.37 14.67,-97.53 43.64,-125.26 28.83,-27.6 64.88,-41.68 107.17,-41.89l0.06 0c43.18,0 79.49,14.33 107.94,42.58 28.48,28.25 43.01,68.56 43.21,119.75 0,61.84 -15.79,106.51 -46.95,132.77 -30.59,25.79 -65.62,38.95 -104.14,39.15zm-0.06 -270.5l0 0c-22.41,0 -40.34,8.12 -54.69,24.78 -14.59,16.91 -22.02,43.38 -22.02,78.62 0,34.84 7.52,61.08 22.27,78 14.56,16.7 32.37,24.89 54.5,25.06 25.14,0 43.64,-8.91 56.5,-27.25 13.55,-19.3 20.42,-45.48 20.42,-77.79 0,-34.27 -7.54,-60.1 -22.41,-76.78 -14.79,-16.59 -32.63,-24.64 -54.58,-24.64zm-401.46 378.11l-73.05 0 0 -435.09 68.57 0 0 19.96c19.5,-17.76 44.62,-26.73 74.97,-26.73 42.55,0 76.7,15.68 101.5,46.64 24.2,30.18 36.46,69.89 36.46,117.99 0,51.09 -13.61,92.44 -40.46,122.87 -27.16,30.81 -61.08,46.54 -100.78,46.74 -26.13,0 -48.62,-7.68 -67.21,-22.93l0 130.54zm66.03 -379.77l0 0c-20.28,0 -36.57,9.17 -49.83,28.07 -13.96,19.94 -21.1,46.41 -21.27,78.72 0,34.14 6.67,60.08 19.85,77.05 12.66,16.35 28.68,24.28 49,24.28 20.14,0 36.37,-8.15 49.57,-24.91 13.7,-17.36 20.74,-44.52 20.92,-80.72 0,-33.84 -6.7,-59.91 -19.94,-77.49 -12.66,-16.84 -28.45,-24.99 -48.3,-24.99zm-331.52 272.15c-40.13,0 -72.21,-8.77 -95.28,-26.13 -23.47,-17.65 -38.17,-44.38 -43.67,-79.42l-1.72 -11.17 72.85 -10.95 1.43 11.41c2.24,17.95 8.46,30.79 18.93,39.27 10.62,8.61 26.39,12.95 46.9,12.95 19.45,0 34.2,-3.82 43.93,-11.36 9.12,-7.11 13.38,-15.1 13.38,-25.15 0,-6 -1.55,-10.35 -4.87,-13.65 -4.2,-4.2 -9.35,-7.29 -15.76,-9.39 -5.46,-1.75 -19.36,-5.69 -54.29,-14.36 -44.83,-10.69 -74.06,-23.78 -89.21,-40.01 -15.39,-16.47 -23.31,-36.41 -23.54,-59.27 0,-28.45 11.42,-52.07 33.92,-70.35 21.84,-17.7 51.15,-26.67 87.18,-26.67 37.77,0 67.84,7.69 89.35,22.84 22.19,15.65 35.77,39.27 40.31,70.2l1.67 11.25 -71.84 9.75 -1.52 -11.1c-1.83,-13.3 -6.81,-22.78 -15.24,-29.02 -8.86,-6.57 -22.04,-9.99 -39.21,-10.17 -17.15,0 -30.99,2.86 -41.03,8.44 -8.35,4.64 -12.12,10.47 -12.23,18.99 0,9.53 4.11,13.06 8.14,15.24 5.87,3.15 19.97,8.78 53.69,17.52 32.31,8.3 55.82,15.39 71.84,21.79 17.29,6.89 31.16,16.75 41.17,29.29 10.38,13.03 15.65,31.1 15.65,53.65 0,29.95 -12.32,55.45 -36.63,75.73 -23.68,19.82 -55.41,29.85 -94.28,29.85zm-322.82 0c-47.84,0 -85.88,-15.01 -113.07,-44.63 -26.93,-29.33 -40.71,-69.78 -40.91,-120.19 0,-49.52 13.18,-90.42 39.15,-121.58 26.47,-31.75 64.16,-47.85 112,-47.85 23.31,0 46.01,5.18 67.49,15.42 21.9,10.42 40.8,28.2 56.13,52.79 15.51,24.93 22.96,61.45 22.76,111.59l-0.06 11.2 -222.19 0c3.2,24.31 11.19,43.29 23.88,56.55 14.58,15.26 32.51,22.65 54.81,22.65 16.89,0 30.56,-4.21 41.71,-12.83 11.28,-8.67 20.11,-22.44 26.3,-41.01l2.91 -8.75 73.97 9.25 -3.4 12.49c-9.06,33.42 -26.06,59.58 -50.49,77.71 -24.36,18.03 -54.98,27.18 -91,27.18zm-75.21 -207.29l0 0 143.02 0c-3.16,-20.71 -10.73,-35.96 -22.58,-45.42 -14.79,-11.81 -30.53,-17.62 -48.16,-17.8 -20.68,0 -37.23,6.71 -50.49,20.47 -11.11,11.5 -18.3,25.57 -21.79,42.74zm-205.44 200.26l-73.08 0 0 -320.46 68.59 0 0 19.1c14.9,-17.21 32.65,-25.87 53.05,-25.87 19.24,0 38.72,5.96 57.88,17.67l7.88 4.84 -25.31 67.78 -11.5 -6.67c-10.76,-6.28 -21.27,-9.44 -31.16,-9.44 -14.93,0 -25.52,6.24 -33.26,19.64 -8.69,15.06 -13.09,37.15 -13.09,65.71l0 167.7zm5660.17 -530.03c-0.52,0 -1.01,0 -1.5,0 -35.7,0 -66.17,-8.19 -90.45,-24.36 -25.66,-17.13 -38.69,-45.03 -38.69,-82.95l0 -13.09 70.57 10.88 1.01 8.45c1.46,12.55 6.35,21.56 14.9,27.54 9.26,6.46 23.48,9.75 42.2,9.75 23.28,0 40.17,-4.44 50.18,-13.2 10.24,-9.02 16.32,-19.65 18.53,-32.48 1.55,-9.21 2.68,-20.8 3.34,-34.61 -20.22,15.47 -43.98,23.28 -70.92,23.28 -42.11,0 -76.43,-15.82 -101.99,-47.08 -24.97,-30.58 -37.74,-69.41 -37.94,-115.52 0,-46.19 12.34,-85.34 36.65,-116.5 24.97,-31.94 59.93,-48.13 103.83,-48.13 29.31,0 54.72,9.03 75.83,26.87l0 -20.11 69.14 0 0 269.09c0,44.16 -4.4,76.53 -13.46,98.87 -9.38,23.13 -26.19,41.47 -49.98,54.51 -22.79,12.49 -50.12,18.8 -81.24,18.8zm3.28 -384.24l0 0c-20.37,0 -36.57,8.12 -49.43,24.79 -13.41,17.39 -20.28,42.04 -20.45,73.28 0,36.08 6.98,62.41 20.82,78.2 13.64,15.56 29.92,23.25 49.75,23.43 18.56,0 34.63,-7.27 49.23,-22.17 14.47,-14.8 21.81,-41.16 21.81,-78.39 0,-32.71 -7.14,-57.76 -21.27,-74.48 -13.81,-16.44 -30.32,-24.52 -50.46,-24.66zm-201.65 263.46l-73.31 0 0 -192.42c0,-34.12 -7.19,-48.82 -13.2,-55.15 -8.75,-9.19 -21.07,-13.64 -37.66,-13.64 -13.01,0 -25.46,3.22 -37,9.54 -11.19,6.14 -18.96,14.51 -23.79,25.55 -5.15,11.83 -7.66,29.28 -7.49,51.91l0 174.2 -73.05 0 0 -320.48 67.99 0 0 23.85c7.34,-6.78 15.36,-12.49 24.02,-17.01 17.09,-8.84 37.14,-13.4 59.62,-13.6 17.12,0 34.08,3.07 50.57,9.11 17.33,6.32 31.14,16.08 41.03,28.97 9.64,12.61 15.94,26.27 18.7,40.72 2.63,13.58 3.77,31.22 3.57,53.89l0 194.55zm-343.31 0l-73.05 0 0 -320.48 73.05 0 0 320.48zm0 -354.48l0 0 -73.05 0 0 -79.76 73.05 0 0 79.76zm-165.78 358.42c-24.83,0 -42.84,-4.53 -55.1,-13.79 -12.4,-9.43 -20.08,-21.78 -22.81,-36.71 -2.4,-12.95 -3.54,-29.98 -3.54,-52.04l0 -160.36 -36.83 0 0 -45.03 -25.06 67.06 -11.5 -6.7c-10.73,-6.24 -21.24,-9.44 -31.13,-9.44 -14.93,0 -25.49,6.24 -33.26,19.64 -8.69,15.08 -13.12,37.19 -13.12,65.74l0 167.69 -73.05 0 0 -320.48 68.56 0 0 19.1c14.93,-17.17 32.68,-25.86 53.11,-25.86 19.24,0 38.72,5.95 57.82,17.66l7.63 4.66 0 -15.56 36.83 0 0 -69.28 73.05 -44.22 0 113.5 50.55 0 0 61.51 -50.55 0 0 163.19c0,17.35 2.09,24.26 3.36,26.87 0.38,0.79 3.66,3.04 13.67,3.2 6.27,0 13.12,-0.7 20.17,-2.04l11.41 -2.22 10.5 67.12 -10.58 2.09c-15.59,3.12 -29.09,4.7 -40.14,4.7zm-513.52 3.1c-40.39,0 -75.89,-13.54 -105.61,-40.25 -30.06,-26.98 -45.29,-69.69 -45.29,-126.9 0,-55.35 14.67,-97.51 43.61,-125.23 28.8,-27.61 64.88,-41.69 107.17,-41.89l0.06 0c43.15,0 79.46,14.32 107.94,42.57 28.51,28.3 43.04,68.6 43.21,119.75 0,61.84 -15.82,106.5 -46.98,132.78 -30.59,25.78 -65.6,38.98 -104.12,39.17zm-0.05 -270.49l0 0c-22.45,0 -40.34,8.08 -54.7,24.73 -14.58,16.92 -21.98,43.37 -21.98,78.61 0,34.86 7.48,61.14 22.21,78.02 14.56,16.7 32.4,24.88 54.5,25.08 25.17,-0.01 43.66,-8.93 56.5,-27.23 13.55,-19.33 20.45,-45.52 20.45,-77.83 0,-34.23 -7.57,-60.07 -22.44,-76.78 -14.73,-16.55 -32.57,-24.6 -54.55,-24.6zm-401.49 378.06l-73.05 0 0 -435.08 68.56 0 0 19.99c19.54,-17.78 44.66,-26.75 75.03,-26.75 42.55,0 76.7,15.7 101.51,46.63 24.16,30.18 36.45,69.86 36.45,117.95 0,51.07 -13.61,92.41 -40.45,122.9 -27.22,30.84 -61.14,46.59 -100.82,46.78 -26.12,0 -48.61,-7.71 -67.23,-22.92l0 130.49zm66.03 -379.76l0 0c-20.25,0 -36.54,9.17 -49.78,28.07 -13.95,19.88 -21.12,46.38 -21.29,78.72 0,34.12 6.67,60.07 19.85,77.05 12.66,16.35 28.65,24.3 48.97,24.3 20.16,0 36.39,-8.16 49.63,-24.96 13.7,-17.32 20.74,-44.49 20.91,-80.73 0,-33.77 -6.73,-59.83 -19.96,-77.45 -12.66,-16.83 -28.48,-24.99 -48.33,-24.99zm-408.48 379.76l-73.05 0 0 -435.08 68.53 0 0 19.97c19.53,-17.76 44.65,-26.73 75,-26.73 42.55,0 76.7,15.7 101.5,46.63 24.2,30.18 36.46,69.86 36.46,117.95 0,51.09 -13.61,92.45 -40.46,122.9 -27.18,30.84 -61.1,46.59 -100.81,46.78 -26.1,0 -48.59,-7.71 -67.17,-22.92l0 130.49zm66.02 -379.76l0 0c-20.25,0 -36.57,9.17 -49.83,28.07 -13.93,19.93 -21.12,46.41 -21.29,78.72 0,34.12 6.69,60.07 19.84,77.05 12.69,16.35 28.71,24.3 49.03,24.3 20.14,0 36.37,-8.16 49.58,-24.93 13.69,-17.35 20.74,-44.52 20.91,-80.76 0,-33.79 -6.7,-59.86 -19.94,-77.45 -12.66,-16.83 -28.48,-24.99 -48.3,-24.99zm-369.46 272.18c-22.59,0 -43.76,-5.28 -62.95,-15.68 -20.08,-10.9 -33.75,-26.4 -40.66,-46.06 -6.38,-18.2 -9.64,-41.65 -9.64,-69.71l0 -196.06 73.05 0 0 176.38c0,25.47 1.15,43.76 3.43,54.41 1.81,8.53 6.79,15.43 15.25,21.13 9.03,6.09 19.53,9.14 32.05,9.3 16.57,0 31.93,-5.64 46.89,-17.3 13.73,-10.64 20.94,-36.03 20.94,-73.43l0 -170.49 73.05 0 0 320.48 -67.7 0 0 -25.74c-22.53,21.75 -50.58,32.77 -83.72,32.77zm-344.72 0c-60.48,0 -106.68,-14 -137.35,-41.65 -30.81,-27.82 -47.47,-64.3 -49.49,-108.41l-0.48 -10.78 73.76 -6.38 0.84 11.35c2.21,29.51 13.03,50.24 33.14,63.31 21.15,13.72 47.15,20.75 77.39,20.93 28.03,0 50.81,-5.7 67.59,-16.92 15.56,-10.44 23.22,-24.17 23.39,-41.88 0,-18.28 -7.45,-30.74 -23.48,-39.1 -18.72,-9.79 -51.03,-19.66 -96.03,-29.31 -47.93,-10.28 -83.41,-25.4 -105.45,-45 -23.02,-20.52 -34.61,-47.19 -34.38,-79.26 0,-36.23 14.42,-66.64 42.81,-90.31 27.79,-23.17 65.77,-34.89 112.84,-34.89 48.04,0 87.4,11.56 117,34.37 30.3,23.33 46.72,56.96 48.76,99.92l0.52 10.86 -74.26 5.99 -0.94 -11.14c-2.01,-23.22 -9.9,-39.94 -24.14,-51.11 -14.56,-11.49 -36.37,-17.38 -64.76,-17.56 -25.87,0 -46.98,4.78 -62.72,14.16 -14.29,8.49 -20.94,19.96 -20.94,36.14 0,13.98 4.78,23.56 15.05,30.11 8.52,5.44 28.36,14.13 74.54,24.62 34.35,7.57 62.93,15.44 84.81,23.45 23.08,8.43 43.18,21.7 59.7,39.41 17.33,18.52 26.07,43.61 26.07,74.52 0,38.72 -15.53,71.28 -46.17,96.8 -30.06,25.07 -69.63,37.75 -117.61,37.75zm-447.84 107.57l-66.31 0 0 -548.85 66.31 0 0 548.85zm-483.51 6.18c-0.49,0 -1,0 -1.49,0 -35.74,0 -66.17,-8.19 -90.45,-24.36 -25.7,-17.13 -38.69,-45.03 -38.69,-82.95l0 -13.09 70.57 10.88 1 8.45c1.47,12.55 6.36,21.56 14.9,27.54 9.27,6.46 23.48,9.75 42.21,9.75 23.27,0 40.17,-4.44 50.18,-13.2 10.24,-9.02 16.31,-19.63 18.52,-32.48 1.55,-9.25 2.68,-20.84 3.34,-34.61 -20.25,15.47 -43.98,23.28 -70.91,23.28 -42.12,0 -76.44,-15.82 -101.99,-47.08 -24.97,-30.58 -37.75,-69.41 -37.95,-115.52 0,-46.19 12.35,-85.34 36.66,-116.5 24.99,-31.94 59.92,-48.13 103.82,-48.13 29.32,0 54.73,9.03 75.84,26.87l0 -20.11 69.13 0 0 269.09c0,44.18 -4.4,76.53 -13.46,98.87 -9.38,23.13 -26.21,41.47 -49.98,54.51 -22.78,12.49 -50.12,18.8 -81.24,18.8zm3.25 -384.24l0 0c-20.33,0 -36.56,8.12 -49.45,24.83 -13.36,17.35 -20.23,42 -20.4,73.24 0,36.08 7.03,62.43 20.83,78.2 13.63,15.56 29.91,23.25 49.74,23.43 18.56,0 34.67,-7.27 49.23,-22.17 14.47,-14.8 21.81,-41.16 21.81,-78.39 0,-32.71 -7.14,-57.76 -21.26,-74.48 -13.81,-16.44 -30.33,-24.52 -50.5,-24.66zm-201.61 263.46l-73.31 0 0 -192.42c0,-34.12 -7.2,-48.82 -13.21,-55.15 -8.75,-9.19 -21.06,-13.64 -37.66,-13.64 -13,0 -25.46,3.22 -37,9.54 -11.18,6.14 -18.96,14.51 -23.79,25.55 -5.15,11.83 -7.66,29.28 -7.48,51.91l0 174.2 -73.05 0 0 -320.48 67.98 0 0 23.85c7.34,-6.78 15.36,-12.49 24.03,-17.01 17.09,-8.84 37.14,-13.4 59.61,-13.6 17.12,0 34.09,3.07 50.58,9.11 17.32,6.32 31.13,16.08 41.03,28.97 9.63,12.61 15.93,26.31 18.7,40.72 2.59,13.41 3.77,31.53 3.57,53.89l0 194.55zm-343.32 0l-73.05 0 0 -320.48 73.05 0 0 320.48zm0 -354.48l0 0 -73.05 0 0 -79.76 73.05 0 0 79.76zm-293.6 475.27c-0.49,0 -0.97,0 -1.49,0 -35.74,0 -66.17,-8.19 -90.42,-24.36 -25.7,-17.13 -38.72,-45.03 -38.72,-82.95l0 -13.09 70.57 10.88 1 8.45c1.5,12.55 6.36,21.56 14.93,27.5 9.27,6.5 23.45,9.79 42.18,9.79 23.3,0 40.2,-4.44 50.18,-13.2 10.27,-8.98 16.31,-19.63 18.53,-32.48 1.57,-9.31 2.7,-20.86 3.36,-34.61 -20.25,15.47 -43.98,23.28 -70.94,23.28 -42.12,0 -76.44,-15.82 -101.96,-47.08 -25,-30.56 -37.78,-69.41 -37.98,-115.52 0,-46.19 12.35,-85.38 36.69,-116.5 24.94,-31.94 59.87,-48.13 103.79,-48.13 29.32,0 54.73,9.03 75.87,26.87l0 -20.11 69.11 0 0 269.09c0,44.24 -4.41,76.6 -13.47,98.87 -9.38,23.13 -26.18,41.47 -49.98,54.51 -22.78,12.49 -50.12,18.8 -81.24,18.8zm3.28 -384.24l0 0c-20.36,0 -36.56,8.12 -49.43,24.79 -13.38,17.41 -20.28,42.06 -20.45,73.28 0,36.08 7.03,62.41 20.83,78.2 13.63,15.56 29.91,23.25 49.77,23.43 18.53,0 34.64,-7.29 49.23,-22.19 14.47,-14.78 21.78,-41.14 21.78,-78.37 0,-32.71 -7.14,-57.76 -21.23,-74.52 -13.84,-16.4 -30.36,-24.48 -50.5,-24.62zm-371.33 270.49c-34.09,0 -61.6,-8.85 -81.8,-26.36 -20.65,-17.87 -31.13,-41.71 -31.13,-70.85 0,-27.9 10.01,-51.18 29.77,-69.26 19.36,-17.66 51.24,-29.07 97.5,-34.86l46.95 -6.98c13.01,-2.08 24.4,-4.54 33.89,-7.4 -0.17,-12.58 -0.72,-18.98 -1.2,-22.24 -0.69,-4.54 -2.88,-9.67 -6.47,-15.2 -3.17,-4.85 -8.81,-8.89 -16.78,-11.9 -9.01,-3.44 -21.41,-5.26 -36.88,-5.44 -19.34,0 -34.55,3.46 -45.18,10.26 -9.92,6.36 -17.06,19.11 -21.26,37.96l-2.24 10.03 -71.32 -9.34 2.07 -11.57c5.95,-33.46 21.64,-59.06 46.61,-76.12 24.28,-16.61 57.59,-24.99 99.05,-24.99 38.26,0 65.97,5.68 84.64,17.46 19.13,12.02 31.16,27.22 35.82,45.19 4.14,16.03 6.24,36.43 6.24,60.65l0 68c0,40.91 0.72,68.47 2.18,81.94 1.32,12.45 5.58,24.97 12.61,37.16l9.72 16.85 -79.35 0 -3.17 -6.01c-3.25,-6.24 -5.92,-13.42 -8,-21.68 -31.79,23.04 -66.11,34.72 -102.3,34.72zm95.25 -152.49l0 0c-23.96,6.85 -52.19,12.48 -84.21,16.73 -42.61,5.64 -47.55,24.07 -47.55,37.46 0,10.43 3.65,18.43 11.5,25.14 8.2,7.03 20.71,10.65 37.2,10.79 22.44,0 41.69,-6.48 58.72,-19.8 15.97,-12.51 24.17,-35.16 24.34,-67.31l0 -3.01zm-222.54 145.45l-89.24 0 -95.11 -146.3 -22.39 21.34 0 124.97 -73.05 0 0 -434.24 73.05 0 0 218.45 103.72 -104.68 98.22 0 -127.28 123.15 132.08 197.32zm-458.42 7.04c-46.63,0 -83.26,-15.64 -108.98,-46.47 -25.22,-30.19 -38,-70.6 -38,-120.1 0,-40.64 7.31,-73.8 21.73,-98.63 14.61,-25.15 33.48,-43.21 56.13,-53.72 22.01,-10.18 45.23,-15.35 69.07,-15.35 33,0 61.71,8.76 85.3,26.03 24.05,17.64 39.16,43.68 44.89,77.42l1.89 11.23 -70.22 10.92 -2.54 -9.93c-4.49,-17.77 -11.56,-31.1 -21.03,-39.61 -9.21,-8.29 -21.01,-12.29 -36.06,-12.29 -24.68,0 -42.78,8.31 -55.26,25.43 -13.13,17.97 -19.77,44.01 -19.77,77.36 0,34.1 6.47,60.44 19.28,78.31 12.11,16.9 29.43,25.18 52.99,25.34 18.73,0 32.85,-4.99 43.12,-15.27 10.53,-10.46 17.38,-27.22 20.42,-49.71l1.47 -11.02 73.05 8.97 -2.01 11.62c-7.05,40.78 -23.62,71.21 -49.29,90.48 -25.28,19.03 -54.26,28.78 -86.2,28.97zm-377.12 0c-34.09,0 -61.59,-8.85 -81.79,-26.36 -20.66,-17.87 -31.14,-41.71 -31.14,-70.85 0,-27.9 10.01,-51.18 29.78,-69.26 19.36,-17.66 51.26,-29.07 97.5,-34.86l46.95 -6.98c13.01,-2.08 24.37,-4.54 33.89,-7.4 -0.12,-10.28 -0.55,-17.75 -1.21,-22.24 -0.71,-4.54 -2.91,-9.67 -6.47,-15.21 -3.14,-4.84 -8.8,-8.88 -16.77,-11.89 -9.01,-3.44 -21.44,-5.26 -36.86,-5.44 -19.33,0 -34.58,3.46 -45.23,10.3 -9.89,6.32 -17.03,19.09 -21.23,37.92l-2.24 10.03 -71.29 -9.34 2.06 -11.57c5.93,-33.46 21.61,-59.06 46.58,-76.12 24.28,-16.61 57.63,-24.99 99.06,-24.99 38.29,0 65.96,5.72 84.64,17.46 19.07,11.97 31.13,27.18 35.82,45.17 4.14,16.05 6.24,36.49 6.24,60.67l0 68c0,40.91 0.74,68.47 2.18,81.94 1.32,12.43 5.55,24.91 12.63,37.16l9.7 16.85 -79.41 0 -3.14 -6.05c-3.19,-6.16 -5.86,-13.4 -7.94,-21.66 -31.79,23.06 -66.11,34.74 -102.34,34.74zm95.26 -152.49l0 0c-24,6.85 -52.22,12.48 -84.21,16.73 -42.61,5.64 -47.56,24.07 -47.56,37.46 0,10.43 3.66,18.43 11.53,25.14 8.18,7.03 20.69,10.65 37.15,10.79 22.47,0 41.71,-6.48 58.72,-19.8 15.99,-12.51 24.19,-35.16 24.37,-67.31l0 -3.01zm-514.99 -92.74l0 0 94.68 0c77.05,0 85.96,-36.54 85.96,-64.03 0,-14.34 -3.52,-26.55 -10.7,-37.28 -6.93,-10.3 -14.93,-16.51 -24.45,-18.98 -11.16,-2.94 -28.63,-4.43 -51.93,-4.43l-93.56 0 0 124.72z"/>
  <path class="fil0" d="M4201.49 10476.93l0 82.08 -410.82 0 -0.48 -13.75c-0.31,-9.52 0.37,-18.89 1.87,-27.94 1.56,-9.27 4.03,-18.26 7.36,-26.98 5.28,-13.93 12.1,-27.75 20.38,-41.21 8.24,-13.39 18.07,-26.71 29.37,-39.86 11.24,-13.04 24.78,-27 40.58,-41.83 15.87,-14.91 33.96,-30.7 54.13,-47.2 30.91,-25.35 56.94,-48.26 77.99,-68.5 20.64,-19.84 36.35,-37.03 46.94,-51.42 10.39,-14.04 18.24,-27.69 23.38,-40.82 4.88,-12.52 7.38,-24.74 7.38,-36.44 0,-12.18 -2.15,-23.34 -6.41,-33.37 -4.29,-10.04 -10.79,-19.3 -19.45,-27.62 -8.64,-8.24 -18.72,-14.48 -30.04,-18.64 -11.53,-4.2 -24.65,-6.36 -39.22,-6.36 -15.56,0 -29.39,2.28 -41.41,6.73 -11.79,4.37 -22.15,11.05 -31.01,19.82 -8.81,8.66 -15.45,19.14 -19.91,31.3 -4.65,12.67 -7.07,27.29 -7.19,43.59l-0.11 15.51 -102.07 -10.23 1.25 -13.95c2.62,-28.78 9,-54.32 19,-76.38 10.22,-22.62 24.33,-41.78 42.17,-57.39 17.84,-15.54 38.7,-27.25 62.36,-34.96 23.32,-7.59 49.5,-11.43 78.53,-11.43 29.24,0 55.77,4.16 79.31,12.4 23.83,8.34 44.68,20.99 62.28,37.77 17.58,16.67 30.82,35.58 39.68,56.45 8.92,20.93 13.35,43.79 13.35,68.39 0,12.42 -1.33,24.91 -3.9,37.31 -2.56,12.24 -6.38,24.4 -11.46,36.35 -5.03,12 -11.82,24.37 -20.16,36.96 -8.19,12.26 -18.04,24.9 -29.48,37.82 -11.58,12.92 -26.73,28.12 -45.33,45.41 -18.29,17.04 -40.21,36.39 -65.6,57.85 -21.84,18.34 -39.33,33.28 -52.36,44.85 -13.47,11.9 -23.15,20.92 -28.77,26.86l-12.78 14.62 270.67 0 0 14.21zm384.06 82.08l-85.28 0 0 -436.23 -7.16 5.34c-11.46,8.3 -24.47,16.77 -38.81,25.19 -14.35,8.43 -27.92,15.79 -40.48,21.94 -12.89,6.3 -25.21,11.61 -36.69,15.81l-19.08 7.02 0 -97.98 8.21 -3.83c19.19,-8.98 37.31,-19.03 54.16,-29.97 16.76,-10.92 32.35,-22.8 46.63,-35.64 14.43,-12.93 26.67,-25.45 36.64,-37.59 9.88,-12.13 17.75,-24 23.4,-35.46l3.92 -7.93 68.75 0 0 609.32 -14.2 0zm450.33 -14.2l0 -123.98 -251.27 0 0 -84.08c90.59,-128.02 180.39,-256.67 271.09,-384.61l79.69 0 0 374.86 78.36 0 0 93.82 -78.36 0 0 138.18 -99.51 0 0 -14.2zm0 -217.8l0 -200.9 -140 200.9 140 0zm290.24 51.77l87.44 -6.69 1.96 13.05c2.56,16.85 6.78,31.47 12.5,43.71 5.56,11.85 12.67,21.75 21.27,29.68 8.64,7.87 18.21,13.82 28.63,17.69 10.5,3.91 22.15,5.9 34.81,5.9 15.39,0 29.39,-2.85 41.97,-8.4 12.64,-5.62 24.23,-14.17 34.65,-25.54 10.3,-11.38 18.17,-24.79 23.4,-40.09 5.33,-15.64 8.04,-33.32 8.04,-53.02 0,-18.68 -2.56,-35.31 -7.59,-49.7 -4.88,-13.98 -12.33,-26.17 -22.13,-36.42 -9.79,-10.16 -21.19,-17.82 -34.1,-22.91 -13.15,-5.17 -28.17,-7.78 -44.93,-7.78 -20.5,0 -38.76,4.66 -54.9,13.89 -8.09,4.65 -15.36,10.05 -21.64,15.98 -6.27,5.92 -11.79,12.69 -16.39,20.02l-4.89 7.77 -90.76 -13.11 60.64 -323.4 312.73 0 0 96.24 -232.68 0 -22.35 113.11c9.37,-4.79 18.88,-8.84 28.51,-12.05 19.68,-6.56 39.82,-9.88 60.29,-9.88 26.96,0 52,4.78 75.06,14.23 23,9.49 43.93,23.71 62.53,42.54 18.66,18.85 32.72,40.53 42.09,64.86 9.34,24.15 14.03,50.86 14.03,80 0,55.67 -16.27,103.88 -48.76,144.55 -19.93,25.16 -43.56,44.14 -70.88,56.75 -27.21,12.61 -57.87,18.91 -91.96,18.91 -27.86,0 -53.24,-3.98 -76.14,-11.85 -23.14,-7.99 -43.84,-20.05 -61.87,-36.07 -18.01,-15.99 -32.21,-34.61 -42.49,-55.77 -10.25,-20.99 -16.64,-44.66 -19.14,-70.74l-1.36 -14.4 14.4 -1.08zm577.67 -149.38l-9.57 -6.19c-12.3,-8.66 -22.53,-18.72 -30.57,-29.93 -8.01,-11.37 -14.05,-23.84 -18.03,-37.29 -3.92,-13.28 -5.93,-27.63 -5.93,-42.87 0,-22.95 4.17,-44.19 12.47,-63.64 8.29,-19.49 20.75,-37.09 37.23,-52.75 16.62,-15.7 35.93,-27.59 57.82,-35.41 21.61,-7.72 45.83,-11.62 72.59,-11.62 54.07,0 98.03,16.04 131.48,48.05 16.73,15.97 29.34,33.8 37.77,53.39 8.47,19.63 12.73,41.02 12.73,63.99 0,14.77 -1.98,28.73 -5.85,41.69 -3.95,13.1 -9.91,25.33 -17.78,36.46 -7.87,11.21 -17.83,21.2 -29.79,29.8l-10.98 7.21c7.07,3.64 13.72,7.62 19.96,11.94 14.77,10.25 27.26,22.55 37.43,36.76 10.14,14.1 17.81,29.62 22.89,46.5 5,16.64 7.56,34.68 7.56,53.97 0,26.52 -4.77,51.11 -14.29,73.69 -9.48,22.53 -23.71,42.97 -42.48,61.05 -18.91,18.22 -40.84,31.92 -65.69,41.02 -24.53,8.97 -51.94,13.49 -82.02,13.49 -30.12,0 -57.53,-4.52 -82.05,-13.53 -24.81,-9.11 -46.74,-22.82 -65.65,-41.08 -18.86,-18.29 -33.12,-38.94 -42.57,-61.8 -9.43,-22.86 -14.2,-47.86 -14.2,-74.85 0,-20.11 2.62,-38.79 7.84,-55.93 5.25,-17.33 13.21,-33.05 23.74,-46.99 10.62,-14.06 23.46,-25.92 38.45,-35.45 5.51,-3.56 11.33,-6.76 17.5,-9.66zm37.03 -118.86c0,11.99 1.87,22.78 5.51,32.22 3.63,9.22 9.14,17.6 16.47,24.92 7.28,7.25 15.73,12.76 25.25,16.36 9.85,3.72 21.04,5.63 33.5,5.63 12.11,0 22.92,-1.85 32.38,-5.49 9.34,-3.58 17.67,-8.99 24.93,-16.24 7.36,-7.27 12.87,-15.35 16.42,-24.04 3.55,-8.76 5.37,-18.54 5.37,-29.31 0,-11.21 -1.9,-21.51 -5.62,-30.73 -3.73,-9.17 -9.4,-17.58 -16.96,-25.08 -7.53,-7.46 -16.02,-13.15 -25.39,-16.84 -9.45,-3.8 -20.13,-5.67 -31.95,-5.67 -11.96,0 -22.75,1.87 -32.26,5.55 -9.46,3.68 -17.98,9.24 -25.44,16.52 -7.44,7.33 -13.04,15.39 -16.73,23.99 -3.64,8.51 -5.48,17.97 -5.48,28.22zm-23.43 267.41c0,18.11 4.23,35.61 12.61,52.51 4.09,8.18 9.23,15.41 15.28,21.62 6.1,6.26 13.32,11.7 21.56,16.14 8.6,4.7 17.44,8.22 26.38,10.48 8.84,2.24 18.26,3.41 28.06,3.41 30.31,0 55.04,-9.53 74.18,-28.56 9.54,-9.5 16.7,-20.28 21.42,-32.3 4.8,-12.21 7.22,-25.84 7.22,-40.86 0,-15.37 -2.51,-29.28 -7.42,-41.63 -4.88,-12.25 -12.3,-23.35 -22.18,-33.17 -9.86,-9.78 -21.08,-17.1 -33.48,-21.99 -12.56,-4.91 -26.59,-7.39 -42.01,-7.39 -15.07,0 -28.68,2.44 -40.72,7.25 -11.96,4.74 -22.78,12.02 -32.32,21.66 -19.03,19.27 -28.57,43.59 -28.57,72.83zm416.96 0.82l87.44 -6.69 1.96 13.05c2.56,16.85 6.78,31.47 12.5,43.71 5.56,11.85 12.67,21.75 21.27,29.68 8.64,7.87 18.21,13.82 28.63,17.69 10.5,3.91 22.15,5.9 34.81,5.9 15.39,0 29.39,-2.85 41.98,-8.4 12.64,-5.62 24.22,-14.17 34.64,-25.54 10.3,-11.38 18.17,-24.79 23.4,-40.09 5.34,-15.64 8.04,-33.32 8.04,-53.02 0,-18.68 -2.56,-35.31 -7.59,-49.7 -4.88,-13.98 -12.33,-26.17 -22.12,-36.42 -9.8,-10.16 -21.19,-17.82 -34.11,-22.91 -13.15,-5.17 -28.17,-7.78 -44.93,-7.78 -20.5,0 -38.76,4.66 -54.9,13.89 -8.09,4.65 -15.36,10.05 -21.64,15.98 -6.27,5.92 -11.79,12.69 -16.39,20.02l-4.89 7.77 -90.75 -13.11 60.63 -323.4 312.73 0 0 96.24 -232.68 0 -22.35 113.11c9.37,-4.79 18.89,-8.84 28.51,-12.05 19.68,-6.56 39.82,-9.88 60.29,-9.88 26.96,0 52,4.78 75.06,14.23 23.01,9.49 43.93,23.71 62.53,42.54 18.66,18.85 32.72,40.53 42.09,64.86 9.34,24.15 14.03,50.86 14.03,80 0,55.67 -16.27,103.88 -48.76,144.55 -19.93,25.16 -43.56,44.14 -70.88,56.75 -27.21,12.61 -57.87,18.91 -91.96,18.91 -27.86,0 -53.24,-3.98 -76.13,-11.85 -23.15,-7.99 -43.85,-20.05 -61.88,-36.07 -18.01,-15.99 -32.21,-34.61 -42.49,-55.77 -10.25,-20.99 -16.64,-44.66 -19.14,-70.74l-1.36 -14.4 14.4 -1.08z"/>
 </g>
</svg>
