<?xml version="1.0" encoding="UTF-8"?>
<!DOCTYPE svg PUBLIC "-//W3C//DTD SVG 1.1//EN" "http://www.w3.org/Graphics/SVG/1.1/DTD/svg11.dtd">
<svg version="1.2" width="384.5mm" height="73.2mm" viewBox="0 0 38450 7320" preserveAspectRatio="xMidYMid" fill-rule="evenodd" stroke-width="28.222" stroke-linejoin="round" xmlns="http://www.w3.org/2000/svg" xmlns:ooo="http://xml.openoffice.org/svg/export" xmlns:xlink="http://www.w3.org/1999/xlink" xmlns:presentation="http://sun.com/xmlns/staroffice/presentation" xmlns:smil="http://www.w3.org/2001/SMIL20/" xmlns:anim="urn:oasis:names:tc:opendocument:xmlns:animation:1.0" xmlns:svg="urn:oasis:names:tc:opendocument:xmlns:svg-compatible:1.0" xml:space="preserve">
 <defs class="ClipPathGroup">
  <clipPath id="presentation_clip_path" clipPathUnits="userSpaceOnUse">
   <rect x="0" y="0" width="38450" height="7320"/>
  </clipPath>
  <clipPath id="presentation_clip_path_shrink" clipPathUnits="userSpaceOnUse">
   <rect x="38" y="7" width="38374" height="7306"/>
  </clipPath>
 </defs>
 <defs class="TextShapeIndex">
  <g ooo:slide="id1" ooo:id-list="id3 id4 id5 id6 id7 id8 id9 id10 id11 id12 id13 id14 id15 id16 id17 id18 id19"/>
 </defs>
 <defs class="EmbeddedBulletChars">
  <g id="bullet-char-template-57356" transform="scale(0.00048828125,-0.00048828125)">
   <path d="M 580,1141 L 1163,571 580,0 -4,571 580,1141 Z"/>
  </g>
  <g id="bullet-char-template-57354" transform="scale(0.00048828125,-0.00048828125)">
   <path d="M 8,1128 L 1137,1128 1137,0 8,0 8,1128 Z"/>
  </g>
  <g id="bullet-char-template-10146" transform="scale(0.00048828125,-0.00048828125)">
   <path d="M 174,0 L 602,739 174,1481 1456,739 174,0 Z M 1358,739 L 309,1346 659,739 1358,739 Z"/>
  </g>
  <g id="bullet-char-template-10132" transform="scale(0.00048828125,-0.00048828125)">
   <path d="M 2015,739 L 1276,0 717,0 1260,543 174,543 174,936 1260,936 717,1481 1274,1481 2015,739 Z"/>
  </g>
  <g id="bullet-char-template-10007" transform="scale(0.00048828125,-0.00048828125)">
   <path d="M 0,-2 C -7,14 -16,27 -25,37 L 356,567 C 262,823 215,952 215,954 215,979 228,992 255,992 264,992 276,990 289,987 310,991 331,999 354,1012 L 381,999 492,748 772,1049 836,1024 860,1049 C 881,1039 901,1025 922,1006 886,937 835,863 770,784 769,783 710,716 594,584 L 774,223 C 774,196 753,168 711,139 L 727,119 C 717,90 699,76 672,76 641,76 570,178 457,381 L 164,-76 C 142,-110 111,-127 72,-127 30,-127 9,-110 8,-76 1,-67 -2,-52 -2,-32 -2,-23 -1,-13 0,-2 Z"/>
  </g>
  <g id="bullet-char-template-10004" transform="scale(0.00048828125,-0.00048828125)">
   <path d="M 285,-33 C 182,-33 111,30 74,156 52,228 41,333 41,471 41,549 55,616 82,672 116,743 169,778 240,778 293,778 328,747 346,684 L 369,508 C 377,444 397,411 428,410 L 1163,1116 C 1174,1127 1196,1133 1229,1133 1271,1133 1292,1118 1292,1087 L 1292,965 C 1292,929 1282,901 1262,881 L 442,47 C 390,-6 338,-33 285,-33 Z"/>
  </g>
  <g id="bullet-char-template-9679" transform="scale(0.00048828125,-0.00048828125)">
   <path d="M 813,0 C 632,0 489,54 383,161 276,268 223,411 223,592 223,773 276,916 383,1023 489,1130 632,1184 813,1184 992,1184 1136,1130 1245,1023 1353,916 1407,772 1407,592 1407,412 1353,268 1245,161 1136,54 992,0 813,0 Z"/>
  </g>
  <g id="bullet-char-template-8226" transform="scale(0.00048828125,-0.00048828125)">
   <path d="M 346,457 C 273,457 209,483 155,535 101,586 74,649 74,723 74,796 101,859 155,911 209,963 273,989 346,989 419,989 480,963 531,910 582,859 608,796 608,723 608,648 583,586 532,535 482,483 420,457 346,457 Z"/>
  </g>
  <g id="bullet-char-template-8211" transform="scale(0.00048828125,-0.00048828125)">
   <path d="M -4,459 L 1135,459 1135,606 -4,606 -4,459 Z"/>
  </g>
  <g id="bullet-char-template-61548" transform="scale(0.00048828125,-0.00048828125)">
   <path d="M 173,740 C 173,903 231,1043 346,1159 462,1274 601,1332 765,1332 928,1332 1067,1274 1183,1159 1299,1043 1357,903 1357,740 1357,577 1299,437 1183,322 1067,206 928,148 765,148 601,148 462,206 346,322 231,437 173,577 173,740 Z"/>
  </g>
 </defs>
 <g>
  <g id="id2" class="Master_Slide">
   <g id="bg-id2" class="Background"/>
   <g id="bo-id2" class="BackgroundObjects"/>
  </g>
 </g>
 <g class="SlideGroup">
  <g>
   <g id="container-id1">
    <g id="id1" class="Slide" clip-path="url(#presentation_clip_path)">
     <g class="Page">
      <g class="com.sun.star.drawing.ClosedBezierShape">
       <g id="id3">
        <rect class="BoundingBox" stroke="none" fill="none" x="6983" y="1667" width="4135" height="4009"/>
        <path fill="rgb(241,98,56)" stroke="none" d="M 11116,3727 C 10866,3753 10742,4001 10742,4471 10742,4822 10765,5064 10813,5198 10206,5515 9618,5674 9048,5674 8444,5674 7950,5492 7568,5130 7177,4759 6983,4271 6983,3669 6983,3070 7177,2584 7568,2213 7952,1849 8445,1667 9048,1667 9733,1667 10311,1799 10781,2064 L 10434,3200 10348,3200 C 10306,2819 10200,2510 10027,2273 9822,1990 9541,1849 9186,1849 8791,1849 8493,2064 8293,2497 8137,2830 8059,3220 8059,3669 8059,4138 8124,4526 8251,4833 8431,5264 8721,5479 9123,5479 9414,5479 9605,5369 9694,5147 9746,5019 9772,4784 9772,4442 9772,4189 9739,4019 9672,3931 9601,3837 9444,3769 9203,3727 L 9203,3633 11116,3633 11116,3727 Z M 11116,3727 L 11116,3727 Z M 10084,4575 C 10084,4384 10055,4232 10000,4118 9939,3991 9831,3885 9677,3802 9792,3930 9866,4060 9900,4191 9924,4285 9937,4437 9937,4646 9937,4846 9921,4996 9889,5096 9845,5232 9756,5351 9623,5453 9822,5388 9952,5275 10015,5115 10060,5005 10084,4825 10084,4575 Z M 10084,4575 L 10084,4575 Z M 9198,1710 L 9070,1710 C 8503,1710 8036,1895 7670,2263 7303,2631 7121,3100 7121,3669 7121,4187 7259,4610 7534,4939 7809,5267 8202,5470 8713,5548 8522,5486 8371,5422 8264,5356 8181,5304 8052,5204 7876,5055 7476,4708 7276,4245 7276,3669 7276,3109 7462,2656 7832,2315 8163,2011 8617,1809 9198,1710 Z "/>
       </g>
      </g>
      <g class="com.sun.star.drawing.ClosedBezierShape">
       <g id="id4">
        <rect class="BoundingBox" stroke="none" fill="none" x="11173" y="2221" width="3820" height="3333"/>
        <path fill="rgb(241,98,56)" stroke="none" d="M 14992,5553 L 13409,5553 13409,5476 C 13508,5451 13573,5426 13602,5400 13643,5363 13663,5299 13663,5207 13663,5103 13609,4937 13499,4706 13422,4558 13346,4409 13268,4259 L 12270,4259 C 12207,4395 12144,4531 12079,4667 12002,4853 11964,5003 11964,5117 11964,5280 12087,5400 12334,5476 L 12334,5553 11173,5553 11173,5484 C 11392,5441 11621,5178 11859,4696 L 12995,2397 C 13053,2279 13093,2221 13115,2221 13140,2221 13167,2248 13195,2304 13212,2343 13228,2382 13245,2420 L 14486,4878 C 14570,5039 14636,5154 14686,5221 14776,5342 14878,5420 14992,5456 L 14992,5553 Z M 14992,5553 L 14992,5553 Z M 13921,5217 C 13921,5119 13869,4960 13763,4739 L 12899,2907 12836,3041 13636,4739 C 13739,4960 13791,5122 13791,5226 13791,5305 13768,5363 13722,5400 13700,5417 13640,5442 13543,5476 13675,5476 13764,5464 13810,5442 13884,5407 13921,5332 13921,5217 Z M 13921,5217 L 13921,5217 Z M 13184,4093 L 12775,3174 12343,4093 13184,4093 Z "/>
       </g>
      </g>
      <g class="com.sun.star.drawing.ClosedBezierShape">
       <g id="id5">
        <rect class="BoundingBox" stroke="none" fill="none" x="15110" y="2309" width="4260" height="3366"/>
        <path fill="rgb(241,98,56)" stroke="none" d="M 19369,5581 L 17786,5581 17786,5487 C 17963,5483 18076,5357 18127,5111 18147,5006 18158,4813 18158,4532 L 18160,2759 18141,2759 16963,5674 16902,5674 15794,2829 15789,4394 C 15789,4634 15820,4848 15882,5035 15966,5297 16097,5451 16277,5498 L 16277,5581 15110,5581 15110,5505 C 15280,5451 15413,5283 15508,5000 15582,4779 15620,4553 15620,4324 L 15620,3108 C 15620,2691 15505,2445 15275,2369 L 15275,2309 16423,2309 17323,4333 18154,2316 19296,2312 19300,2382 C 19168,2415 19083,2480 19044,2577 19019,2639 19006,2750 19006,2910 L 19006,4568 C 19006,4832 19017,5018 19039,5126 19090,5366 19200,5487 19369,5487 L 19369,5581 Z M 19369,5581 L 19369,5581 Z M 18420,4641 L 18420,3081 C 18420,3082 18419,2869 18416,2442 L 18292,2667 18292,4641 C 18292,4937 18246,5186 18154,5390 L 18045,5502 C 18189,5502 18293,5389 18357,5166 18400,5018 18420,4843 18420,4641 Z M 18420,4641 L 18420,4641 Z M 17004,5298 L 15886,2373 15559,2373 C 15620,2393 15688,2446 15764,2533 15836,2612 15884,2687 15909,2756 L 16936,5464 17004,5298 Z "/>
       </g>
      </g>
      <g class="com.sun.star.drawing.ClosedBezierShape">
       <g id="id6">
        <rect class="BoundingBox" stroke="none" fill="none" x="19690" y="2309" width="1526" height="3246"/>
        <path fill="rgb(241,98,56)" stroke="none" d="M 21215,5553 L 19690,5553 19690,5456 C 19864,5456 19978,5343 20032,5117 20056,5011 20067,4829 20067,4568 L 20067,2810 C 20067,2685 20054,2598 20028,2548 19994,2483 19921,2430 19809,2386 L 19809,2309 21127,2309 21127,2386 C 20962,2430 20879,2564 20879,2791 L 20879,4603 C 20879,4859 20889,5031 20907,5122 20953,5340 21056,5451 21215,5456 L 21215,5553 Z M 21215,5553 L 21215,5553 Z M 20327,4568 L 20327,2810 C 20327,2685 20294,2586 20230,2512 20161,2433 20065,2392 19944,2386 20053,2420 20126,2473 20163,2546 20189,2599 20203,2687 20203,2810 L 20203,4568 C 20203,4822 20193,4997 20173,5093 20130,5319 20033,5441 19883,5461 20075,5461 20204,5352 20270,5133 20307,5009 20327,4821 20327,4568 Z "/>
       </g>
      </g>
      <g class="com.sun.star.drawing.PolyPolygonShape">
       <g id="id7">
        <rect class="BoundingBox" stroke="none" fill="none" x="21960" y="3563" width="1653" height="736"/>
        <path fill="rgb(241,98,56)" stroke="none" d="M 23612,4298 L 21960,4298 21960,3563 23612,3563 23612,4298 Z "/>
       </g>
      </g>
      <g class="com.sun.star.drawing.ClosedBezierShape">
       <g id="id8">
        <rect class="BoundingBox" stroke="none" fill="none" x="24487" y="1722" width="3748" height="3828"/>
        <path fill="rgb(27,25,24)" stroke="none" d="M 28233,2694 C 28233,3100 28008,3402 27557,3599 27222,3746 26820,3820 26350,3820 26185,3820 26037,3807 25904,3783 L 25904,4426 C 25904,4751 25916,4964 25939,5066 25996,5327 26129,5458 26338,5458 L 26338,5548 24499,5548 24487,5458 C 24681,5451 24810,5317 24873,5054 24906,4920 24923,4710 24923,4421 L 24923,2463 C 24923,2071 24825,1857 24631,1819 L 24631,1729 26467,1722 C 26903,1722 27273,1780 27579,1898 28015,2064 28233,2330 28233,2694 Z M 28233,2694 L 28233,2694 Z M 27499,2699 C 27499,2455 27397,2251 27192,2087 27001,1933 26780,1856 26531,1856 L 26467,1856 C 26719,1861 26927,1940 27091,2091 27262,2248 27347,2450 27347,2699 27347,2925 27275,3127 27133,3304 26982,3491 26795,3585 26575,3585 26820,3585 27034,3498 27220,3325 27406,3153 27499,2944 27499,2699 Z M 27499,2699 L 27499,2699 Z M 27165,2671 C 27165,2178 26815,1932 26117,1932 L 25904,1932 25904,3563 26117,3563 C 26432,3563 26680,3495 26861,3360 27064,3206 27165,2977 27165,2671 Z M 27165,2671 L 27165,2671 Z M 25233,4421 L 25233,2463 C 25233,2296 25201,2155 25136,2037 25054,1892 24936,1819 24783,1819 24912,1857 24998,1943 25039,2077 25065,2157 25076,2285 25076,2463 L 25076,4421 C 25076,4701 25060,4909 25025,5047 24960,5308 24831,5445 24639,5458 24887,5451 25055,5330 25145,5096 25204,4945 25233,4721 25233,4421 Z "/>
       </g>
      </g>
      <g class="com.sun.star.drawing.ClosedBezierShape">
       <g id="id9">
        <rect class="BoundingBox" stroke="none" fill="none" x="27408" y="2221" width="3820" height="3333"/>
        <path fill="rgb(27,25,24)" stroke="none" d="M 31227,5553 L 29644,5553 29644,5476 C 29743,5451 29808,5426 29837,5400 29878,5363 29898,5299 29898,5207 29898,5103 29844,4937 29734,4706 29657,4558 29581,4409 29503,4259 L 28505,4259 C 28442,4395 28379,4531 28314,4667 28237,4853 28199,5003 28199,5117 28199,5280 28322,5400 28569,5476 L 28569,5553 27408,5553 27408,5484 C 27627,5441 27856,5178 28094,4696 L 29230,2397 C 29288,2279 29328,2221 29350,2221 29375,2221 29402,2248 29430,2304 29447,2343 29463,2382 29480,2420 L 30722,4878 C 30805,5039 30871,5154 30921,5221 31011,5342 31113,5420 31227,5456 L 31227,5553 Z M 31227,5553 L 31227,5553 Z M 30156,5217 C 30156,5119 30104,4960 29998,4739 L 29134,2907 29071,3041 29871,4739 C 29974,4960 30026,5122 30026,5226 30026,5305 30003,5363 29957,5400 29935,5417 29875,5442 29778,5476 29910,5476 29999,5464 30045,5442 30119,5407 30156,5332 30156,5217 Z M 30156,5217 L 30156,5217 Z M 29419,4093 L 29010,3174 28578,4093 29419,4093 Z "/>
       </g>
      </g>
      <g class="com.sun.star.drawing.ClosedBezierShape">
       <g id="id10">
        <rect class="BoundingBox" stroke="none" fill="none" x="31514" y="2197" width="3319" height="3459"/>
        <path fill="rgb(27,25,24)" stroke="none" d="M 34831,5262 C 34323,5524 33811,5655 33295,5655 32777,5655 32353,5499 32021,5189 31683,4871 31514,4456 31514,3942 31514,3419 31685,2997 32028,2673 32365,2356 32796,2197 33322,2197 33877,2197 34368,2316 34793,2555 L 34499,3563 34430,3535 C 34395,3203 34310,2937 34174,2738 34006,2492 33770,2369 33465,2369 33120,2369 32855,2554 32668,2925 32517,3222 32441,3561 32441,3942 32441,4325 32513,4662 32655,4951 32836,5321 33098,5505 33442,5505 34064,5505 34429,5138 34535,4402 L 34600,4374 34831,5262 Z M 34831,5262 L 34831,5262 Z M 33414,5604 C 32314,5388 31766,4835 31766,3942 31766,3030 32314,2466 33414,2250 32895,2250 32472,2401 32143,2704 31806,3017 31637,3429 31637,3942 31637,4456 31807,4864 32145,5168 32468,5454 32891,5600 33414,5604 Z "/>
       </g>
      </g>
      <g class="com.sun.star.drawing.ClosedBezierShape">
       <g id="id11">
        <rect class="BoundingBox" stroke="none" fill="none" x="35004" y="2317" width="3447" height="3277"/>
        <path fill="rgb(27,25,24)" stroke="none" d="M 38450,5593 L 37319,5593 C 37285,5593 37264,5580 37254,5555 L 36817,4486 C 36746,4311 36694,4198 36663,4148 36582,4020 36486,3957 36376,3957 36250,3957 36187,4047 36187,4227 L 36187,4614 C 36187,4956 36206,5186 36245,5305 36288,5434 36378,5499 36514,5499 L 36514,5593 35005,5593 35005,5499 C 35234,5490 35349,5186 35349,4586 L 35349,2971 C 35349,2801 35341,2683 35326,2619 35293,2482 35217,2407 35101,2397 L 35101,2317 36438,2317 36438,2397 C 36319,2428 36244,2503 36212,2623 36195,2683 36187,2799 36187,2971 L 36187,3791 36947,3041 C 37100,2888 37176,2754 37176,2636 37176,2501 37100,2425 36947,2405 L 36947,2317 38280,2317 38280,2420 C 37949,2567 37632,2760 37331,3001 37297,3029 37006,3284 36462,3764 36826,3764 37108,3839 37308,3990 37447,4096 37587,4284 37730,4557 37916,4912 38061,5156 38165,5291 38262,5418 38358,5503 38450,5545 L 38450,5593 Z M 38450,5593 L 38450,5593 Z M 37640,5499 C 37553,5441 37458,5292 37355,5049 37202,4695 37105,4482 37064,4410 36933,4179 36784,4036 36614,3980 36739,4089 36882,4327 37044,4694 37107,4833 37215,5102 37369,5503 L 37640,5499 Z M 37640,5499 L 37640,5499 Z M 35607,4586 L 35607,2971 C 35607,2795 35588,2665 35550,2581 35496,2458 35392,2397 35239,2397 35353,2412 35426,2487 35460,2621 35476,2684 35483,2801 35483,2971 L 35483,4586 C 35483,4792 35464,4973 35424,5131 35363,5376 35265,5499 35128,5499 35329,5493 35465,5383 35538,5167 35584,5032 35607,4840 35607,4586 Z "/>
       </g>
      </g>
      <g class="com.sun.star.drawing.PolyPolygonShape">
       <g id="id12">
        <rect class="BoundingBox" stroke="none" fill="none" x="3230" y="51" width="2950" height="3025"/>
        <path fill="rgb(27,25,24)" stroke="none" d="M 3230,1012 L 5224,3075 6179,2116 4164,51 3230,1012 Z "/>
       </g>
      </g>
      <g class="com.sun.star.drawing.PolyPolygonShape">
       <g id="id13">
        <rect class="BoundingBox" stroke="none" fill="none" x="14" y="3245" width="2962" height="3012"/>
        <path fill="rgb(27,25,24)" stroke="none" d="M 14,4249 L 1975,6256 2975,5300 970,3245 14,4249 Z "/>
       </g>
      </g>
      <g class="com.sun.star.drawing.PolyPolygonShape">
       <g id="id14">
        <rect class="BoundingBox" stroke="none" fill="none" x="3123" y="3222" width="3116" height="3108"/>
        <path fill="rgb(241,98,56)" stroke="none" d="M 4135,6329 L 6238,4216 5225,3222 3124,5302 4135,6329 Z "/>
       </g>
      </g>
      <g class="com.sun.star.drawing.PolyPolygonShape">
       <g id="id15">
        <rect class="BoundingBox" stroke="none" fill="none" x="4" y="0" width="3080" height="3096"/>
        <path fill="rgb(241,98,56)" stroke="none" d="M 970,3095 L 3083,1012 2121,0 4,2114 970,3095 Z "/>
       </g>
      </g>
      <g class="com.sun.star.drawing.PolyPolygonShape">
       <g id="id16">
        <rect class="BoundingBox" stroke="none" fill="none" x="1045" y="1138" width="2061" height="2633"/>
        <path fill="rgb(241,98,56)" stroke="none" d="M 1629,3770 L 1045,3172 3104,1138 3101,2383 1629,3770 Z "/>
       </g>
      </g>
      <g class="com.sun.star.drawing.PolyPolygonShape">
       <g id="id17">
        <rect class="BoundingBox" stroke="none" fill="none" x="3206" y="1141" width="1946" height="2641"/>
        <path fill="rgb(27,25,24)" stroke="none" d="M 3206,2384 L 3209,1141 5151,3147 4510,3781 3206,2384 Z "/>
       </g>
      </g>
      <g class="com.sun.star.drawing.PolyPolygonShape">
       <g id="id18">
        <rect class="BoundingBox" stroke="none" fill="none" x="3105" y="5432" width="959" height="1893"/>
        <path fill="rgb(27,25,24)" stroke="none" d="M 3150,7324 L 3105,5433 4062,6404 3150,7324 Z "/>
       </g>
      </g>
      <g class="com.sun.star.drawing.PolyPolygonShape">
       <g id="id19">
        <rect class="BoundingBox" stroke="none" fill="none" x="2049" y="5423" width="999" height="1898"/>
        <path fill="rgb(241,98,56)" stroke="none" d="M 2049,6330 L 3000,5424 3046,7320 2049,6330 Z "/>
       </g>
      </g>
     </g>
    </g>
   </g>
  </g>
 </g>
</svg>